<svg xmlns="http://www.w3.org/2000/svg" viewBox="0 0 448.08859 465.8579"><defs><style>.cls-1,.cls-13{fill:#d8ebe4;}.cls-16,.cls-2,.cls-5,.cls-6{fill:none;}.cls-11,.cls-12,.cls-13,.cls-14,.cls-17,.cls-2,.cls-3,.cls-4,.cls-5,.cls-7,.cls-8{stroke:#282846;}.cls-11,.cls-12,.cls-13,.cls-14,.cls-17,.cls-2,.cls-3,.cls-4,.cls-6,.cls-9{stroke-linecap:round;stroke-linejoin:round;}.cls-11,.cls-12,.cls-13,.cls-14,.cls-16,.cls-17,.cls-2,.cls-3,.cls-4,.cls-5,.cls-6,.cls-7,.cls-8,.cls-9{stroke-width:0.75px;}.cls-3{fill:#007f33;}.cls-4{fill:#173e26;}.cls-16,.cls-5,.cls-7,.cls-8{stroke-miterlimit:10;}.cls-6,.cls-9{stroke:#1e2234;}.cls-11,.cls-7{fill:#282846;}.cls-15,.cls-17,.cls-8{fill:#fff;}.cls-10,.cls-9{fill:#1e2234;}.cls-12{fill:#007580;}.cls-14{fill:#27442b;}.cls-16{stroke:#fff;}</style></defs><g id="OBJECTS"><rect class="cls-1" x="11.0869" y="43.3749" width="32.617" height="12.4917"/><rect class="cls-1" x="66.6052" y="43.3749" width="32.6171" height="12.4917"/><rect class="cls-1" x="122.1236" y="43.3749" width="32.617" height="12.4917"/><rect class="cls-1" x="177.6419" y="43.3749" width="32.617" height="12.4917"/><rect class="cls-1" x="233.16029" y="43.3749" width="32.617" height="12.4917"/><rect class="cls-1" x="288.67859" y="43.3749" width="32.617" height="12.4917"/><rect class="cls-1" x="344.1969" y="43.3749" width="32.61709" height="12.4917"/><rect class="cls-1" x="399.71529" y="43.3749" width="32.617" height="12.4917"/><rect class="cls-1" x="11.0869" y="67.6642" width="32.617" height="12.4916"/><rect class="cls-1" x="66.6052" y="67.6642" width="32.6171" height="12.4916"/><rect class="cls-1" x="122.1236" y="67.6642" width="32.617" height="12.4916"/><rect class="cls-1" x="177.6419" y="67.6642" width="32.617" height="12.4916"/><rect class="cls-1" x="233.16029" y="67.6642" width="32.617" height="12.4916"/><rect class="cls-1" x="288.67859" y="67.6642" width="32.617" height="12.4916"/><rect class="cls-1" x="344.1969" y="67.6642" width="32.61709" height="12.4916"/><rect class="cls-1" x="399.71529" y="67.6642" width="32.617" height="12.4916"/><rect class="cls-1" x="11.0869" y="91.9535" width="32.617" height="12.4916"/><rect class="cls-1" x="66.6052" y="91.9535" width="32.6171" height="12.4916"/><rect class="cls-1" x="122.1236" y="91.9535" width="32.617" height="12.4916"/><rect class="cls-1" x="177.6419" y="91.9535" width="32.617" height="12.4916"/><rect class="cls-1" x="233.16029" y="91.9535" width="32.617" height="12.4916"/><rect class="cls-1" x="288.67859" y="91.9535" width="32.617" height="12.4916"/><rect class="cls-1" x="344.1969" y="91.9535" width="32.61709" height="12.4916"/><rect class="cls-1" x="399.71529" y="91.9535" width="32.617" height="12.4916"/><rect class="cls-1" x="11.0869" y="116.2428" width="32.617" height="12.4916"/><rect class="cls-1" x="66.6052" y="116.2428" width="32.6171" height="12.4916"/><rect class="cls-1" x="122.1236" y="116.2428" width="32.617" height="12.4916"/><rect class="cls-1" x="177.6419" y="116.2428" width="32.617" height="12.4916"/><rect class="cls-1" x="233.16029" y="116.2428" width="32.617" height="12.4916"/><rect class="cls-1" x="288.67859" y="116.2428" width="32.617" height="12.4916"/><rect class="cls-1" x="344.1969" y="116.2428" width="32.61709" height="12.4916"/><rect class="cls-1" x="399.71529" y="116.2428" width="32.617" height="12.4916"/><rect class="cls-1" x="11.0869" y="140.532" width="32.617" height="12.4917"/><rect class="cls-1" x="66.6052" y="140.532" width="32.6171" height="12.4917"/><rect class="cls-1" x="122.1236" y="140.532" width="32.617" height="12.4917"/><rect class="cls-1" x="177.6419" y="140.532" width="32.617" height="12.4917"/><rect class="cls-1" x="233.16029" y="140.532" width="32.617" height="12.4917"/><rect class="cls-1" x="288.67859" y="140.532" width="32.617" height="12.4917"/><rect class="cls-1" x="344.1969" y="140.532" width="32.61709" height="12.4917"/><rect class="cls-1" x="399.71529" y="140.532" width="32.617" height="12.4917"/><rect class="cls-1" x="11.0869" y="164.8213" width="32.617" height="12.4916"/><rect class="cls-1" x="66.6052" y="164.8213" width="32.6171" height="12.4916"/><rect class="cls-1" x="122.1236" y="164.8213" width="32.617" height="12.4916"/><rect class="cls-1" x="177.6419" y="164.8213" width="32.617" height="12.4916"/><rect class="cls-1" x="233.16029" y="164.8213" width="32.617" height="12.4916"/><rect class="cls-1" x="288.67859" y="164.8213" width="32.617" height="12.4916"/><rect class="cls-1" x="344.1969" y="164.8213" width="32.61709" height="12.4916"/><rect class="cls-1" x="399.71529" y="164.8213" width="32.617" height="12.4916"/><path class="cls-1" d="M175.7142,356.9558h-3.7654a.92865.92865,0,0,1,0-1.8573h3.7654a.92865.92865,0,0,1,0,1.8573Zm.9285,3.3744a.92779.92779,0,0,0-.9285-.9285h-3.7654a.9286.9286,0,0,0,0,1.8572h3.7654A.92809.92809,0,0,0,176.6427,360.3302Zm0,4.303a.92792.92792,0,0,0-.9285-.9285h-3.7654a.9286.9286,0,0,0,0,1.8572h3.7654A.928.928,0,0,0,176.6427,364.6332Zm0,4.3032a.928.928,0,0,0-.9285-.9288h-3.7654a.9287.9287,0,0,0,0,1.8574h3.7654A.92794.92794,0,0,0,176.6427,368.9364Zm0,4.3031a.928.928,0,0,0-.9285-.9287h-3.7654a.9286.9286,0,0,0,0,1.8572h3.7654A.92792.92792,0,0,0,176.6427,373.2395Zm0,4.3038a.92792.92792,0,0,0-.9285-.9285h-3.7654a.9286.9286,0,0,0,0,1.8572h3.7654A.928.928,0,0,0,176.6427,377.5433Zm0,4.3032a.92788.92788,0,0,0-.9285-.9286h-3.7654a.9286.9286,0,0,0,0,1.8572h3.7654A.92794.92794,0,0,0,176.6427,381.8465Zm0,4.3031a.928.928,0,0,0-.9285-.9287h-3.7654a.9286.9286,0,0,0,0,1.8572h3.7654A.92792.92792,0,0,0,176.6427,386.1496Zm14.0864-30.1226a.92811.92811,0,0,0-.9285-.9285h-9.8841a.92865.92865,0,0,0,0,1.8573h9.8841A.92818.92818,0,0,0,190.7291,356.027Zm0,4.3032a.92792.92792,0,0,0-.9285-.9285h-9.8841a.9286.9286,0,0,0,0,1.8572h9.8841A.92822.92822,0,0,0,190.7291,360.3302Zm0,4.303a.928.928,0,0,0-.9285-.9285h-9.8841a.9286.9286,0,0,0,0,1.8572h9.8841A.92809.92809,0,0,0,190.7291,364.6332Zm0,4.3032a.92818.92818,0,0,0-.9285-.9288h-9.8841a.9287.9287,0,0,0,0,1.8574h9.8841A.92807.92807,0,0,0,190.7291,368.9364Zm0,4.3031a.92815.92815,0,0,0-.9285-.9287h-9.8841a.9286.9286,0,0,0,0,1.8572h9.8841A.928.928,0,0,0,190.7291,373.2395Zm11.83379,4.3038a.928.928,0,0,0-.9287-.9285H191.7503a.9286.9286,0,1,0,0,1.8572h9.88389A.92807.92807,0,0,0,202.56289,377.5433Zm0,4.3032a.928.928,0,0,0-.9287-.9286H191.7503a.9286.9286,0,1,0,0,1.8572h9.88389A.928.928,0,0,0,202.56289,381.8465Zm0,4.3031a.92813.92813,0,0,0-.9287-.9287H191.7503a.9286.9286,0,1,0,0,1.8572h9.88389A.928.928,0,0,0,202.56289,386.1496ZM195.0788,356.027a1.0758,1.0758,0,1,0-1.0757,1.0759A1.07563,1.07563,0,0,0,195.0788,356.027Zm3.22729,0a1.0757,1.0757,0,1,0-1.07569,1.0759A1.07555,1.07555,0,0,0,198.30609,356.027Zm3.2275,0a1.0757,1.0757,0,1,0-1.0757,1.0759A1.07556,1.07556,0,0,0,201.53359,356.027Zm3.2275,0a1.0758,1.0758,0,1,0-1.0759,1.0759A1.07573,1.07573,0,0,0,204.76109,356.027Zm3.2275,0a1.0759,1.0759,0,1,0-1.0761,1.0759A1.07578,1.07578,0,0,0,207.98859,356.027Zm3.2273,0a1.0758,1.0758,0,1,0-1.07589,1.0759A1.07573,1.07573,0,0,0,211.21589,356.027Zm-16.13709,8.6064a1.0758,1.0758,0,1,0-1.0757,1.0759A1.07563,1.07563,0,0,0,195.0788,364.6334Zm3.22729,0a1.0757,1.0757,0,1,0-1.07569,1.0759A1.07555,1.07555,0,0,0,198.30609,364.6334Zm3.2275,0a1.0757,1.0757,0,1,0-1.0757,1.0759A1.07556,1.07556,0,0,0,201.53359,364.6334Zm3.2275,0a1.0758,1.0758,0,1,0-1.0759,1.0759A1.07573,1.07573,0,0,0,204.76109,364.6334Zm3.2275,0a1.0759,1.0759,0,1,0-1.0761,1.0759A1.07578,1.07578,0,0,0,207.98859,364.6334Zm3.2273,0a1.0758,1.0758,0,1,0-1.07589,1.0759A1.07573,1.07573,0,0,0,211.21589,364.6334Zm-5.11,12.3717A1.0758,1.0758,0,1,0,205.03,378.081,1.076,1.076,0,0,0,206.10589,377.0051Zm3.2273,0a1.0758,1.0758,0,1,0-1.0759,1.0759A1.07588,1.07588,0,0,0,209.33319,377.0051Zm3.2275,0a1.0759,1.0759,0,1,0-1.0759,1.0759A1.07594,1.07594,0,0,0,212.56069,377.0051Zm3.22731,0a1.07581,1.07581,0,1,0-1.07571,1.0759A1.07591,1.07591,0,0,0,215.788,377.0051Zm3.22729,0a1.0758,1.0758,0,1,0-1.0757,1.0759A1.07578,1.07578,0,0,0,219.01529,377.0051Zm3.2275,0a1.0758,1.0758,0,1,0-1.0759,1.0759A1.07595,1.07595,0,0,0,222.24279,377.0051Zm-16.1369,8.8754a1.0758,1.0758,0,1,0-1.07589,1.0758A1.076,1.076,0,0,0,206.10589,385.8805Zm3.2273,0a1.0758,1.0758,0,1,0-1.0759,1.0758A1.0759,1.0759,0,0,0,209.33319,385.8805Zm3.2275,0a1.0759,1.0759,0,1,0-1.0759,1.0758A1.076,1.076,0,0,0,212.56069,385.8805Zm3.22731,0a1.07581,1.07581,0,1,0-1.07571,1.0758A1.07593,1.07593,0,0,0,215.788,385.8805Zm3.22729,0a1.0758,1.0758,0,1,0-1.0757,1.0758A1.0758,1.0758,0,0,0,219.01529,385.8805Zm3.2275,0a1.0758,1.0758,0,1,0-1.0759,1.0758A1.076,1.076,0,0,0,222.24279,385.8805Z" transform="translate(-27.8281 -16.0765)"/><path class="cls-1" d="M175.7142,391.3904h-3.7654a.9287.9287,0,0,1,0-1.8574h3.7654a.9287.9287,0,0,1,0,1.8574Zm.9285,3.3744a.92794.92794,0,0,0-.9285-.9286h-3.7654a.92865.92865,0,0,0,0,1.8573h3.7654A.92809.92809,0,0,0,176.6427,394.7648Zm0,4.303a.92792.92792,0,0,0-.9285-.9285h-3.7654a.9286.9286,0,0,0,0,1.8572h3.7654A.928.928,0,0,0,176.6427,399.0678Zm0,4.3032a.928.928,0,0,0-.9285-.9287h-3.7654a.9286.9286,0,0,0,0,1.8572h3.7654A.92786.92786,0,0,0,176.6427,403.371Zm0,4.3031a.928.928,0,0,0-.9285-.9287h-3.7654a.9286.9286,0,0,0,0,1.8572h3.7654A.92792.92792,0,0,0,176.6427,407.6741Zm0,4.3038a.92792.92792,0,0,0-.9285-.9285h-3.7654a.9287.9287,0,0,0,0,1.8574h3.7654A.92813.92813,0,0,0,176.6427,411.9779Zm0,4.3032a.928.928,0,0,0-.9285-.9287h-3.7654a.9286.9286,0,0,0,0,1.8572h3.7654A.92786.92786,0,0,0,176.6427,416.2811Zm0,4.3031a.928.928,0,0,0-.9285-.9287h-3.7654a.9286.9286,0,0,0,0,1.8572h3.7654A.92792.92792,0,0,0,176.6427,420.5842Zm14.0864-30.1225a.92822.92822,0,0,0-.9285-.9287h-9.8841a.9287.9287,0,0,0,0,1.8574h9.8841A.92815.92815,0,0,0,190.7291,390.4617Zm0,4.3031a.92807.92807,0,0,0-.9285-.9286h-9.8841a.92865.92865,0,0,0,0,1.8573h9.8841A.92822.92822,0,0,0,190.7291,394.7648Zm0,4.303a.928.928,0,0,0-.9285-.9285h-9.8841a.9286.9286,0,0,0,0,1.8572h9.8841A.92809.92809,0,0,0,190.7291,399.0678Zm0,4.3032a.92809.92809,0,0,0-.9285-.9287h-9.8841a.9286.9286,0,0,0,0,1.8572h9.8841A.928.928,0,0,0,190.7291,403.371Zm0,4.3031a.92815.92815,0,0,0-.9285-.9287h-9.8841a.9286.9286,0,0,0,0,1.8572h9.8841A.928.928,0,0,0,190.7291,407.6741Zm11.83379,4.3038a.928.928,0,0,0-.9287-.9285H191.7503a.9287.9287,0,1,0,0,1.8574h9.88389A.92824.92824,0,0,0,202.56289,411.9779Zm0,4.3032a.92807.92807,0,0,0-.9287-.9287H191.7503a.9286.9286,0,1,0,0,1.8572h9.88389A.928.928,0,0,0,202.56289,416.2811Zm0,4.3031a.92813.92813,0,0,0-.9287-.9287H191.7503a.9286.9286,0,1,0,0,1.8572h9.88389A.928.928,0,0,0,202.56289,420.5842Zm-7.48409-30.1225a1.0758,1.0758,0,1,0-1.0757,1.0757A1.07573,1.07573,0,0,0,195.0788,390.4617Zm3.22729,0a1.0757,1.0757,0,1,0-1.07569,1.0757A1.07566,1.07566,0,0,0,198.30609,390.4617Zm3.2275,0a1.0757,1.0757,0,1,0-1.0757,1.0757A1.07567,1.07567,0,0,0,201.53359,390.4617Zm3.2275,0a1.0758,1.0758,0,1,0-1.0759,1.0757A1.07584,1.07584,0,0,0,204.76109,390.4617Zm3.2275,0a1.0759,1.0759,0,1,0-1.0761,1.0757A1.07588,1.07588,0,0,0,207.98859,390.4617Zm3.2273,0a1.0758,1.0758,0,1,0-1.07589,1.0757A1.07584,1.07584,0,0,0,211.21589,390.4617Zm-16.13709,8.6064a1.0758,1.0758,0,1,0-1.0757,1.0758A1.07565,1.07565,0,0,0,195.0788,399.0681Zm3.22729,0a1.0757,1.0757,0,1,0-1.07569,1.0758A1.07558,1.07558,0,0,0,198.30609,399.0681Zm3.2275,0a1.0757,1.0757,0,1,0-1.0757,1.0758A1.07558,1.07558,0,0,0,201.53359,399.0681Zm3.2275,0a1.0758,1.0758,0,1,0-1.0759,1.0758A1.07575,1.07575,0,0,0,204.76109,399.0681Zm3.2275,0a1.0759,1.0759,0,1,0-1.0761,1.0758A1.0758,1.0758,0,0,0,207.98859,399.0681Zm3.2273,0a1.0758,1.0758,0,1,0-1.07589,1.0758A1.07575,1.07575,0,0,0,211.21589,399.0681Zm-5.11,12.3716a1.0758,1.0758,0,1,0-1.07589,1.0758A1.076,1.076,0,0,0,206.10589,411.4397Zm3.2273,0a1.0758,1.0758,0,1,0-1.0759,1.0758A1.07588,1.07588,0,0,0,209.33319,411.4397Zm3.2275,0a1.0759,1.0759,0,1,0-1.0759,1.0758A1.07594,1.07594,0,0,0,212.56069,411.4397Zm3.22731,0a1.07581,1.07581,0,1,0-1.07571,1.0758A1.07591,1.07591,0,0,0,215.788,411.4397Zm3.22729,0a1.0758,1.0758,0,1,0-1.0757,1.0758A1.07578,1.07578,0,0,0,219.01529,411.4397Zm3.2275,0a1.0758,1.0758,0,1,0-1.0759,1.0758A1.07595,1.07595,0,0,0,222.24279,411.4397Zm-16.1369,8.8754A1.0758,1.0758,0,1,0,205.03,421.391,1.07586,1.07586,0,0,0,206.10589,420.3151Zm3.2273,0a1.0758,1.0758,0,1,0-1.0759,1.0759A1.07573,1.07573,0,0,0,209.33319,420.3151Zm3.2275,0a1.0759,1.0759,0,1,0-1.0759,1.0759A1.07579,1.07579,0,0,0,212.56069,420.3151Zm3.22731,0a1.07581,1.07581,0,1,0-1.07571,1.0759A1.07576,1.07576,0,0,0,215.788,420.3151Zm3.22729,0a1.0758,1.0758,0,1,0-1.0757,1.0759A1.07563,1.07563,0,0,0,219.01529,420.3151Zm3.2275,0a1.0758,1.0758,0,1,0-1.0759,1.0759A1.0758,1.0758,0,0,0,222.24279,420.3151Z" transform="translate(-27.8281 -16.0765)"/><path class="cls-1" d="M175.7142,426.6564h-3.7654a.9287.9287,0,0,1,0-1.8574h3.7654a.9287.9287,0,0,1,0,1.8574Zm.9285,3.3743a.92792.92792,0,0,0-.9285-.9285h-3.7654a.9286.9286,0,0,0,0,1.8572h3.7654A.928.928,0,0,0,176.6427,430.0307Zm0,4.3032a.928.928,0,0,0-.9285-.9287h-3.7654a.9286.9286,0,0,0,0,1.8572h3.7654A.92786.92786,0,0,0,176.6427,434.3339Zm0,4.3031a.928.928,0,0,0-.9285-.9287h-3.7654a.9286.9286,0,0,0,0,1.8572h3.7654A.92792.92792,0,0,0,176.6427,438.637Zm0,4.303a.92809.92809,0,0,0-.9285-.9287h-3.7654a.9287.9287,0,0,0,0,1.8574h3.7654A.928.928,0,0,0,176.6427,442.94Zm0,4.304a.928.928,0,0,0-.9285-.9287h-3.7654a.92865.92865,0,0,0,0,1.8573h3.7654A.92794.92794,0,0,0,176.6427,447.244Zm0,4.3031a.928.928,0,0,0-.9285-.9287h-3.7654a.9286.9286,0,0,0,0,1.8572h3.7654A.92792.92792,0,0,0,176.6427,451.5471Zm0,4.303a.92809.92809,0,0,0-.9285-.9287h-3.7654a.9287.9287,0,0,0,0,1.8574h3.7654A.928.928,0,0,0,176.6427,455.8501Zm14.0864-30.1224a.92815.92815,0,0,0-.9285-.9287h-9.8841a.9287.9287,0,0,0,0,1.8574h9.8841A.92822.92822,0,0,0,190.7291,425.7277Zm0,4.303a.928.928,0,0,0-.9285-.9285h-9.8841a.9286.9286,0,0,0,0,1.8572h9.8841A.92809.92809,0,0,0,190.7291,430.0307Zm0,4.3032a.92809.92809,0,0,0-.9285-.9287h-9.8841a.9286.9286,0,0,0,0,1.8572h9.8841A.928.928,0,0,0,190.7291,434.3339Zm0,4.3031a.92809.92809,0,0,0-.9285-.9287h-9.8841a.9286.9286,0,0,0,0,1.8572h9.8841A.928.928,0,0,0,190.7291,438.637Zm0,4.303a.92822.92822,0,0,0-.9285-.9287h-9.8841a.9287.9287,0,0,0,0,1.8574h9.8841A.92815.92815,0,0,0,190.7291,442.94Zm11.83379,4.304a.92807.92807,0,0,0-.9287-.9287H191.7503a.92865.92865,0,1,0,0,1.8573h9.88389A.928.928,0,0,0,202.56289,447.244Zm0,4.3031a.92813.92813,0,0,0-.9287-.9287H191.7503a.9286.9286,0,1,0,0,1.8572h9.88389A.928.928,0,0,0,202.56289,451.5471Zm0,4.303a.9282.9282,0,0,0-.9287-.9287H191.7503a.9287.9287,0,0,0,0,1.8574h9.88389A.92813.92813,0,0,0,202.56289,455.8501Zm-7.48409-30.1226a1.0758,1.0758,0,1,0-1.0757,1.0759A1.07575,1.07575,0,0,0,195.0788,425.7275Zm3.22729,0a1.0757,1.0757,0,1,0-1.07569,1.0759A1.07568,1.07568,0,0,0,198.30609,425.7275Zm3.2275,0a1.0757,1.0757,0,1,0-1.0757,1.0759A1.07569,1.07569,0,0,0,201.53359,425.7275Zm3.2275,0a1.0758,1.0758,0,1,0-1.0759,1.0759A1.07586,1.07586,0,0,0,204.76109,425.7275Zm3.2275,0a1.0759,1.0759,0,1,0-1.0761,1.0759A1.0759,1.0759,0,0,0,207.98859,425.7275Zm3.2273,0a1.0758,1.0758,0,1,0-1.07589,1.0759A1.07586,1.07586,0,0,0,211.21589,425.7275Zm-16.13709,8.6064a1.0758,1.0758,0,1,0-1.0757,1.0759A1.07575,1.07575,0,0,0,195.0788,434.3339Zm3.22729,0a1.0757,1.0757,0,1,0-1.07569,1.0759A1.07568,1.07568,0,0,0,198.30609,434.3339Zm3.2275,0a1.0757,1.0757,0,1,0-1.0757,1.0759A1.07569,1.07569,0,0,0,201.53359,434.3339Zm3.2275,0a1.0758,1.0758,0,1,0-1.0759,1.0759A1.07586,1.07586,0,0,0,204.76109,434.3339Zm3.2275,0a1.0759,1.0759,0,1,0-1.0761,1.0759A1.0759,1.0759,0,0,0,207.98859,434.3339Zm3.2273,0a1.0758,1.0758,0,1,0-1.07589,1.0759A1.07586,1.07586,0,0,0,211.21589,434.3339Zm-5.11,12.3717a1.0758,1.0758,0,1,0-1.07589,1.076A1.07592,1.07592,0,0,0,206.10589,446.7056Zm3.2273,0a1.0758,1.0758,0,1,0-1.0759,1.076A1.0758,1.0758,0,0,0,209.33319,446.7056Zm3.2275,0a1.0759,1.0759,0,1,0-1.0759,1.076A1.07585,1.07585,0,0,0,212.56069,446.7056Zm3.22731,0a1.07581,1.07581,0,1,0-1.07571,1.076A1.07583,1.07583,0,0,0,215.788,446.7056Zm3.22729,0a1.0758,1.0758,0,1,0-1.0757,1.076A1.07569,1.07569,0,0,0,219.01529,446.7056Zm3.2275,0a1.0758,1.0758,0,1,0-1.0759,1.076A1.07586,1.07586,0,0,0,222.24279,446.7056Zm-16.1369,8.8755a1.0758,1.0758,0,1,0-1.07589,1.0758A1.07588,1.07588,0,0,0,206.10589,455.5811Zm3.2273,0a1.0758,1.0758,0,1,0-1.0759,1.0758A1.07575,1.07575,0,0,0,209.33319,455.5811Zm3.2275,0a1.0759,1.0759,0,1,0-1.0759,1.0758A1.07581,1.07581,0,0,0,212.56069,455.5811Zm3.22731,0a1.07581,1.07581,0,1,0-1.07571,1.0758A1.07578,1.07578,0,0,0,215.788,455.5811Zm3.22729,0a1.0758,1.0758,0,1,0-1.0757,1.0758A1.07565,1.07565,0,0,0,219.01529,455.5811Zm3.2275,0a1.0758,1.0758,0,1,0-1.0759,1.0758A1.07582,1.07582,0,0,0,222.24279,455.5811Z" transform="translate(-27.8281 -16.0765)"/><path class="cls-1" d="M233.523,356.9558h-3.76531a.92865.92865,0,0,1,0-1.8573H233.523a.92865.92865,0,1,1,0,1.8573Zm.92869,3.3744a.9279.9279,0,0,0-.92869-.9285h-3.76531a.9286.9286,0,0,0,0,1.8572H233.523A.92819.92819,0,0,0,234.45169,360.3302Zm0,4.303a.928.928,0,0,0-.92869-.9285h-3.76531a.9286.9286,0,0,0,0,1.8572H233.523A.92807.92807,0,0,0,234.45169,364.6332Zm0,4.3032a.92815.92815,0,0,0-.92869-.9288h-3.76531a.9287.9287,0,0,0,0,1.8574H233.523A.928.928,0,0,0,234.45169,368.9364Zm0,4.3031a.92813.92813,0,0,0-.92869-.9287h-3.76531a.9286.9286,0,0,0,0,1.8572H233.523A.928.928,0,0,0,234.45169,373.2395Zm0,4.3038a.928.928,0,0,0-.92869-.9285h-3.76531a.9286.9286,0,0,0,0,1.8572H233.523A.92807.92807,0,0,0,234.45169,377.5433Zm0,4.3032a.928.928,0,0,0-.92869-.9286h-3.76531a.9286.9286,0,0,0,0,1.8572H233.523A.928.928,0,0,0,234.45169,381.8465Zm0,4.3031a.92813.92813,0,0,0-.92869-.9287h-3.76531a.9286.9286,0,0,0,0,1.8572H233.523A.928.928,0,0,0,234.45169,386.1496Zm14.0864-30.1226a.92815.92815,0,0,0-.9287-.9285h-9.8839a.92865.92865,0,1,0,0,1.8573h9.8839A.92822.92822,0,0,0,248.53809,356.027Zm0,4.3032a.928.928,0,0,0-.9287-.9285h-9.8839a.9286.9286,0,1,0,0,1.8572h9.8839A.92826.92826,0,0,0,248.53809,360.3302Zm0,4.303a.92809.92809,0,0,0-.9287-.9285h-9.8839a.9286.9286,0,1,0,0,1.8572h9.8839A.92813.92813,0,0,0,248.53809,364.6332Zm0,4.3032a.92822.92822,0,0,0-.9287-.9288h-9.8839a.9287.9287,0,1,0,0,1.8574h9.8839A.92811.92811,0,0,0,248.53809,368.9364Zm0,4.3031a.9282.9282,0,0,0-.9287-.9287h-9.8839a.9286.9286,0,1,0,0,1.8572h9.8839A.92809.92809,0,0,0,248.53809,373.2395Zm11.8336,4.3038a.928.928,0,0,0-.9286-.9285h-9.8839a.9286.9286,0,1,0,0,1.8572h9.8839A.928.928,0,0,0,260.37169,377.5433Zm0,4.3032a.928.928,0,0,0-.9286-.9286h-9.8839a.9286.9286,0,1,0,0,1.8572h9.8839A.928.928,0,0,0,260.37169,381.8465Zm0,4.3031a.92811.92811,0,0,0-.9286-.9287h-9.8839a.9286.9286,0,1,0,0,1.8572h9.8839A.928.928,0,0,0,260.37169,386.1496Zm-7.4839-30.1226a1.0758,1.0758,0,1,0-1.07579,1.0759A1.07577,1.07577,0,0,0,252.88779,356.027Zm3.2273,0a1.0758,1.0758,0,1,0-1.0757,1.0759A1.07563,1.07563,0,0,0,256.11509,356.027Zm3.2275,0a1.0758,1.0758,0,1,0-1.0759,1.0759A1.0758,1.0758,0,0,0,259.34259,356.027Zm3.2273,0a1.0757,1.0757,0,1,0-1.0757,1.0759A1.07563,1.07563,0,0,0,262.56989,356.027Zm3.2275,0a1.0758,1.0758,0,1,0-1.0759,1.0759A1.07567,1.07567,0,0,0,265.79739,356.027Zm3.2275,0a1.0759,1.0759,0,1,0-1.0761,1.0759A1.07584,1.07584,0,0,0,269.02489,356.027Zm-16.1371,8.6064a1.0758,1.0758,0,1,0-1.07579,1.0759A1.07577,1.07577,0,0,0,252.88779,364.6334Zm3.2273,0a1.0758,1.0758,0,1,0-1.0757,1.0759A1.07563,1.07563,0,0,0,256.11509,364.6334Zm3.2275,0a1.0758,1.0758,0,1,0-1.0759,1.0759A1.0758,1.0758,0,0,0,259.34259,364.6334Zm3.2273,0a1.0757,1.0757,0,1,0-1.0757,1.0759A1.07563,1.07563,0,0,0,262.56989,364.6334Zm3.2275,0a1.0758,1.0758,0,1,0-1.0759,1.0759A1.07567,1.07567,0,0,0,265.79739,364.6334Zm3.2275,0a1.0759,1.0759,0,1,0-1.0761,1.0759A1.07584,1.07584,0,0,0,269.02489,364.6334Zm-5.1101,12.3717a1.07585,1.07585,0,1,0-1.076,1.0759A1.076,1.076,0,0,0,263.91479,377.0051Zm3.2274,0a1.0758,1.0758,0,1,0-1.0759,1.0759A1.076,1.076,0,0,0,267.14219,377.0051Zm3.2273,0a1.0758,1.0758,0,1,0-1.0757,1.0759A1.07584,1.07584,0,0,0,270.36949,377.0051Zm3.22751,0a1.07591,1.07591,0,1,0-1.07591,1.0759A1.076,1.076,0,0,0,273.597,377.0051Zm3.22729,0a1.0758,1.0758,0,1,0-1.0757,1.0759A1.0759,1.0759,0,0,0,276.82429,377.0051Zm3.2273,0a1.0757,1.0757,0,1,0-1.0757,1.0759A1.07583,1.07583,0,0,0,280.05159,377.0051Zm-16.1368,8.8754a1.07585,1.07585,0,1,0-1.076,1.0758A1.076,1.076,0,0,0,263.91479,385.8805Zm3.2274,0a1.0758,1.0758,0,1,0-1.0759,1.0758A1.076,1.076,0,0,0,267.14219,385.8805Zm3.2273,0a1.0758,1.0758,0,1,0-1.0757,1.0758A1.07586,1.07586,0,0,0,270.36949,385.8805Zm3.22751,0a1.07591,1.07591,0,1,0-1.07591,1.0758A1.076,1.076,0,0,0,273.597,385.8805Zm3.22729,0a1.0758,1.0758,0,1,0-1.0757,1.0758A1.07593,1.07593,0,0,0,276.82429,385.8805Zm3.2273,0a1.0757,1.0757,0,1,0-1.0757,1.0758A1.07585,1.07585,0,0,0,280.05159,385.8805Z" transform="translate(-27.8281 -16.0765)"/><path class="cls-1" d="M233.523,392.2218h-3.76531a.9287.9287,0,0,1,0-1.8574H233.523a.9287.9287,0,0,1,0,1.8574Zm.92869,3.3743a.928.928,0,0,0-.92869-.9285h-3.76531a.9286.9286,0,0,0,0,1.8572H233.523A.92807.92807,0,0,0,234.45169,395.5961Zm0,4.3032a.92815.92815,0,0,0-.92869-.9288h-3.76531a.9287.9287,0,0,0,0,1.8574H233.523A.928.928,0,0,0,234.45169,399.8993Zm0,4.3031a.92807.92807,0,0,0-.92869-.9287h-3.76531a.9286.9286,0,0,0,0,1.8572H233.523A.92809.92809,0,0,0,234.45169,404.2024Zm0,4.3029a.92817.92817,0,0,0-.92869-.9286h-3.76531a.9287.9287,0,0,0,0,1.8574H233.523A.92815.92815,0,0,0,234.45169,408.5053Zm0,4.3041a.928.928,0,0,0-.92869-.9286h-3.76531a.9286.9286,0,0,0,0,1.8572H233.523A.928.928,0,0,0,234.45169,412.8094Zm0,4.3031a.92813.92813,0,0,0-.92869-.9287h-3.76531a.9286.9286,0,0,0,0,1.8572H233.523A.928.928,0,0,0,234.45169,417.1125Zm0,4.303a.92819.92819,0,0,0-.92869-.9287h-3.76531a.9287.9287,0,0,0,0,1.8574H233.523A.92813.92813,0,0,0,234.45169,421.4155Zm14.0864-30.1224a.92813.92813,0,0,0-.9287-.9287h-9.8839a.9287.9287,0,0,0,0,1.8574h9.8839A.92826.92826,0,0,0,248.53809,391.2931Zm0,4.303a.92809.92809,0,0,0-.9287-.9285h-9.8839a.9286.9286,0,1,0,0,1.8572h9.8839A.92813.92813,0,0,0,248.53809,395.5961Zm0,4.3032a.92822.92822,0,0,0-.9287-.9288h-9.8839a.9287.9287,0,1,0,0,1.8574h9.8839A.92811.92811,0,0,0,248.53809,399.8993Zm0,4.3031a.92813.92813,0,0,0-.9287-.9287h-9.8839a.9286.9286,0,1,0,0,1.8572h9.8839A.92815.92815,0,0,0,248.53809,404.2024Zm0,4.3029a.92824.92824,0,0,0-.9287-.9286h-9.8839a.9287.9287,0,1,0,0,1.8574h9.8839A.92822.92822,0,0,0,248.53809,408.5053Zm11.8336,4.3041a.928.928,0,0,0-.9286-.9286h-9.8839a.9286.9286,0,1,0,0,1.8572h9.8839A.928.928,0,0,0,260.37169,412.8094Zm0,4.3031a.92811.92811,0,0,0-.9286-.9287h-9.8839a.9286.9286,0,1,0,0,1.8572h9.8839A.928.928,0,0,0,260.37169,417.1125Zm0,4.303a.92818.92818,0,0,0-.9286-.9287h-9.8839a.9287.9287,0,0,0,0,1.8574h9.8839A.92811.92811,0,0,0,260.37169,421.4155Zm-7.4839-30.1226a1.0758,1.0758,0,1,0-1.07579,1.0759A1.0759,1.0759,0,0,0,252.88779,391.2929Zm3.2273,0a1.0758,1.0758,0,1,0-1.0757,1.0759A1.07575,1.07575,0,0,0,256.11509,391.2929Zm3.2275,0a1.0758,1.0758,0,1,0-1.0759,1.0759A1.07593,1.07593,0,0,0,259.34259,391.2929Zm3.2273,0a1.0757,1.0757,0,1,0-1.0757,1.0759A1.07575,1.07575,0,0,0,262.56989,391.2929Zm3.2275,0a1.0758,1.0758,0,1,0-1.0759,1.0759A1.0758,1.0758,0,0,0,265.79739,391.2929Zm3.2275,0a1.0759,1.0759,0,1,0-1.0761,1.0759A1.076,1.076,0,0,0,269.02489,391.2929Zm-16.1371,8.6064a1.0758,1.0758,0,1,0-1.07579,1.0759A1.0759,1.0759,0,0,0,252.88779,399.8993Zm3.2273,0a1.0758,1.0758,0,1,0-1.0757,1.0759A1.07575,1.07575,0,0,0,256.11509,399.8993Zm3.2275,0a1.0758,1.0758,0,1,0-1.0759,1.0759A1.07593,1.07593,0,0,0,259.34259,399.8993Zm3.2273,0a1.0757,1.0757,0,1,0-1.0757,1.0759A1.07575,1.07575,0,0,0,262.56989,399.8993Zm3.2275,0a1.0758,1.0758,0,1,0-1.0759,1.0759A1.0758,1.0758,0,0,0,265.79739,399.8993Zm3.2275,0a1.0759,1.0759,0,1,0-1.0761,1.0759A1.076,1.076,0,0,0,269.02489,399.8993Zm-5.1101,12.3717a1.07585,1.07585,0,1,0-1.076,1.0759A1.07588,1.07588,0,0,0,263.91479,412.271Zm3.2274,0a1.0758,1.0758,0,1,0-1.0759,1.0759A1.07593,1.07593,0,0,0,267.14219,412.271Zm3.2273,0a1.0758,1.0758,0,1,0-1.0757,1.0759A1.07575,1.07575,0,0,0,270.36949,412.271Zm3.22751,0a1.07591,1.07591,0,1,0-1.07591,1.0759A1.07593,1.07593,0,0,0,273.597,412.271Zm3.22729,0a1.0758,1.0758,0,1,0-1.0757,1.0759A1.07582,1.07582,0,0,0,276.82429,412.271Zm3.2273,0a1.0757,1.0757,0,1,0-1.0757,1.0759A1.07575,1.07575,0,0,0,280.05159,412.271Zm-16.1368,8.8755a1.07585,1.07585,0,1,0-1.076,1.0757A1.07575,1.07575,0,0,0,263.91479,421.1465Zm3.2274,0a1.0758,1.0758,0,1,0-1.0759,1.0757A1.0758,1.0758,0,0,0,267.14219,421.1465Zm3.2273,0a1.0758,1.0758,0,1,0-1.0757,1.0757A1.07563,1.07563,0,0,0,270.36949,421.1465Zm3.22751,0a1.07591,1.07591,0,1,0-1.07591,1.0757A1.07581,1.07581,0,0,0,273.597,421.1465Zm3.22729,0a1.0758,1.0758,0,1,0-1.0757,1.0757A1.07569,1.07569,0,0,0,276.82429,421.1465Zm3.2273,0a1.0757,1.0757,0,1,0-1.0757,1.0757A1.07562,1.07562,0,0,0,280.05159,421.1465Z" transform="translate(-27.8281 -16.0765)"/><path class="cls-1" d="M357.57849,269.2822h-3.7654a.92865.92865,0,0,1,0-1.8573h3.7654a.92865.92865,0,0,1,0,1.8573Zm.92851,3.3744a.9278.9278,0,0,0-.92851-.9285h-3.7654a.9286.9286,0,0,0,0,1.8572h3.7654A.9281.9281,0,0,0,358.507,272.6566Zm0,4.303a.92793.92793,0,0,0-.92851-.9285h-3.7654a.9286.9286,0,0,0,0,1.8572h3.7654A.928.928,0,0,0,358.507,276.9596Zm0,4.3032a.92806.92806,0,0,0-.92851-.9288h-3.7654a.9287.9287,0,0,0,0,1.8574h3.7654A.928.928,0,0,0,358.507,281.2628Zm0,4.3031a.928.928,0,0,0-.92851-.9287h-3.7654a.9286.9286,0,0,0,0,1.8572h3.7654A.92793.92793,0,0,0,358.507,285.5659Zm0,4.3038a.92793.92793,0,0,0-.92851-.9285h-3.7654a.9286.9286,0,0,0,0,1.8572h3.7654A.928.928,0,0,0,358.507,289.8697Zm0,4.3032a.92789.92789,0,0,0-.92851-.9286h-3.7654a.9286.9286,0,0,0,0,1.8572h3.7654A.928.928,0,0,0,358.507,294.1729Zm0,4.3031a.928.928,0,0,0-.92851-.9287h-3.7654a.9286.9286,0,0,0,0,1.8572h3.7654A.92793.92793,0,0,0,358.507,298.476Zm14.08639-30.1226a.92811.92811,0,0,0-.9285-.9285h-9.8841a.92865.92865,0,0,0,0,1.8573h9.8841A.92817.92817,0,0,0,372.59339,268.3534Zm0,4.3032a.92791.92791,0,0,0-.9285-.9285h-9.8841a.9286.9286,0,0,0,0,1.8572h9.8841A.92821.92821,0,0,0,372.59339,272.6566Zm0,4.303a.928.928,0,0,0-.9285-.9285h-9.8841a.9286.9286,0,0,0,0,1.8572h9.8841A.92808.92808,0,0,0,372.59339,276.9596Zm0,4.3032a.92817.92817,0,0,0-.9285-.9288h-9.8841a.9287.9287,0,0,0,0,1.8574h9.8841A.92806.92806,0,0,0,372.59339,281.2628Zm0,4.3031a.92815.92815,0,0,0-.9285-.9287h-9.8841a.9286.9286,0,0,0,0,1.8572h9.8841A.928.928,0,0,0,372.59339,285.5659Zm11.8338,4.3038a.928.928,0,0,0-.9287-.9285h-9.8839a.9286.9286,0,1,0,0,1.8572h9.8839A.92807.92807,0,0,0,384.42719,289.8697Zm0,4.3032a.928.928,0,0,0-.9287-.9286h-9.8839a.9286.9286,0,1,0,0,1.8572h9.8839A.928.928,0,0,0,384.42719,294.1729Zm0,4.3031a.92813.92813,0,0,0-.9287-.9287h-9.8839a.9286.9286,0,1,0,0,1.8572h9.8839A.928.928,0,0,0,384.42719,298.476Zm-7.4841-30.1226a1.0758,1.0758,0,1,0-1.0757,1.0759A1.07563,1.07563,0,0,0,376.94309,268.3534Zm3.2273,0a1.0757,1.0757,0,1,0-1.0757,1.0759A1.07556,1.07556,0,0,0,380.17039,268.3534Zm3.2275,0a1.0757,1.0757,0,1,0-1.0757,1.0759A1.07556,1.07556,0,0,0,383.39789,268.3534Zm3.2275,0a1.0758,1.0758,0,1,0-1.0759,1.0759A1.07573,1.07573,0,0,0,386.62539,268.3534Zm3.2275,0a1.0759,1.0759,0,1,0-1.0761,1.0759A1.07578,1.07578,0,0,0,389.85289,268.3534Zm3.2273,0a1.0758,1.0758,0,1,0-1.0759,1.0759A1.07573,1.07573,0,0,0,393.08019,268.3534Zm-16.1371,8.6064a1.0758,1.0758,0,1,0-1.0757,1.0759A1.07563,1.07563,0,0,0,376.94309,276.9598Zm3.2273,0a1.0757,1.0757,0,1,0-1.0757,1.0759A1.07556,1.07556,0,0,0,380.17039,276.9598Zm3.2275,0a1.0757,1.0757,0,1,0-1.0757,1.0759A1.07556,1.07556,0,0,0,383.39789,276.9598Zm3.2275,0a1.0758,1.0758,0,1,0-1.0759,1.0759A1.07573,1.07573,0,0,0,386.62539,276.9598Zm3.2275,0a1.0759,1.0759,0,1,0-1.0761,1.0759A1.07578,1.07578,0,0,0,389.85289,276.9598Zm3.2273,0a1.0758,1.0758,0,1,0-1.0759,1.0759A1.07573,1.07573,0,0,0,393.08019,276.9598Zm-5.11,12.3717a1.0758,1.0758,0,1,0-1.0759,1.0759A1.076,1.076,0,0,0,387.97019,289.3315Zm3.2273,0a1.0758,1.0758,0,1,0-1.0759,1.0759A1.07588,1.07588,0,0,0,391.19749,289.3315Zm3.22751,0a1.07591,1.07591,0,1,0-1.07591,1.0759A1.076,1.076,0,0,0,394.425,289.3315Zm3.22729,0a1.0758,1.0758,0,1,0-1.0757,1.0759A1.0759,1.0759,0,0,0,397.65229,289.3315Zm3.2273,0a1.0758,1.0758,0,1,0-1.0757,1.0759A1.07578,1.07578,0,0,0,400.87959,289.3315Zm3.2275,0a1.0758,1.0758,0,1,0-1.0759,1.0759A1.07595,1.07595,0,0,0,404.10709,289.3315Zm-16.1369,8.8754a1.0758,1.0758,0,1,0-1.0759,1.0758A1.076,1.076,0,0,0,387.97019,298.2069Zm3.2273,0a1.0758,1.0758,0,1,0-1.0759,1.0758A1.0759,1.0759,0,0,0,391.19749,298.2069Zm3.22751,0a1.07591,1.07591,0,1,0-1.07591,1.0758A1.076,1.076,0,0,0,394.425,298.2069Zm3.22729,0a1.0758,1.0758,0,1,0-1.0757,1.0758A1.07593,1.07593,0,0,0,397.65229,298.2069Zm3.2273,0a1.0758,1.0758,0,1,0-1.0757,1.0758A1.0758,1.0758,0,0,0,400.87959,298.2069Zm3.2275,0a1.0758,1.0758,0,1,0-1.0759,1.0758A1.076,1.076,0,0,0,404.10709,298.2069Z" transform="translate(-27.8281 -16.0765)"/><path class="cls-1" d="M357.57849,303.7168h-3.7654a.9287.9287,0,0,1,0-1.8574h3.7654a.9287.9287,0,0,1,0,1.8574Zm.92851,3.3744a.928.928,0,0,0-.92851-.9286h-3.7654a.92865.92865,0,0,0,0,1.8573h3.7654A.9281.9281,0,0,0,358.507,307.0912Zm0,4.303a.92793.92793,0,0,0-.92851-.9285h-3.7654a.9286.9286,0,0,0,0,1.8572h3.7654A.928.928,0,0,0,358.507,311.3942Zm0,4.3032a.928.928,0,0,0-.92851-.9287h-3.7654a.9286.9286,0,0,0,0,1.8572h3.7654A.92786.92786,0,0,0,358.507,315.6974Zm0,4.3031a.928.928,0,0,0-.92851-.9287h-3.7654a.9286.9286,0,0,0,0,1.8572h3.7654A.92793.92793,0,0,0,358.507,320.0005Zm0,4.3038a.92793.92793,0,0,0-.92851-.9285h-3.7654a.9287.9287,0,0,0,0,1.8574h3.7654A.92814.92814,0,0,0,358.507,324.3043Zm0,4.3032a.928.928,0,0,0-.92851-.9287h-3.7654a.9286.9286,0,0,0,0,1.8572h3.7654A.92786.92786,0,0,0,358.507,328.6075Zm0,4.3031a.928.928,0,0,0-.92851-.9287h-3.7654a.9286.9286,0,0,0,0,1.8572h3.7654A.92793.92793,0,0,0,358.507,332.9106Zm14.08639-30.1225a.92821.92821,0,0,0-.9285-.9287h-9.8841a.9287.9287,0,0,0,0,1.8574h9.8841A.92815.92815,0,0,0,372.59339,302.7881Zm0,4.3031a.92806.92806,0,0,0-.9285-.9286h-9.8841a.92865.92865,0,0,0,0,1.8573h9.8841A.92821.92821,0,0,0,372.59339,307.0912Zm0,4.303a.928.928,0,0,0-.9285-.9285h-9.8841a.9286.9286,0,0,0,0,1.8572h9.8841A.92808.92808,0,0,0,372.59339,311.3942Zm0,4.3032a.92808.92808,0,0,0-.9285-.9287h-9.8841a.9286.9286,0,0,0,0,1.8572h9.8841A.928.928,0,0,0,372.59339,315.6974Zm0,4.3031a.92815.92815,0,0,0-.9285-.9287h-9.8841a.9286.9286,0,0,0,0,1.8572h9.8841A.928.928,0,0,0,372.59339,320.0005Zm11.8338,4.3038a.928.928,0,0,0-.9287-.9285h-9.8839a.9287.9287,0,1,0,0,1.8574h9.8839A.92824.92824,0,0,0,384.42719,324.3043Zm0,4.3032a.92807.92807,0,0,0-.9287-.9287h-9.8839a.9286.9286,0,1,0,0,1.8572h9.8839A.928.928,0,0,0,384.42719,328.6075Zm0,4.3031a.92813.92813,0,0,0-.9287-.9287h-9.8839a.9286.9286,0,1,0,0,1.8572h9.8839A.928.928,0,0,0,384.42719,332.9106Zm-7.4841-30.1225a1.0758,1.0758,0,1,0-1.0757,1.0757A1.07573,1.07573,0,0,0,376.94309,302.7881Zm3.2273,0a1.0757,1.0757,0,1,0-1.0757,1.0757A1.07567,1.07567,0,0,0,380.17039,302.7881Zm3.2275,0a1.0757,1.0757,0,1,0-1.0757,1.0757A1.07567,1.07567,0,0,0,383.39789,302.7881Zm3.2275,0a1.0758,1.0758,0,1,0-1.0759,1.0757A1.07584,1.07584,0,0,0,386.62539,302.7881Zm3.2275,0a1.0759,1.0759,0,1,0-1.0761,1.0757A1.07588,1.07588,0,0,0,389.85289,302.7881Zm3.2273,0a1.0758,1.0758,0,1,0-1.0759,1.0757A1.07584,1.07584,0,0,0,393.08019,302.7881Zm-16.1371,8.6064a1.0758,1.0758,0,1,0-1.0757,1.0758A1.07565,1.07565,0,0,0,376.94309,311.3945Zm3.2273,0a1.0757,1.0757,0,1,0-1.0757,1.0758A1.07558,1.07558,0,0,0,380.17039,311.3945Zm3.2275,0a1.0757,1.0757,0,1,0-1.0757,1.0758A1.07558,1.07558,0,0,0,383.39789,311.3945Zm3.2275,0a1.0758,1.0758,0,1,0-1.0759,1.0758A1.07575,1.07575,0,0,0,386.62539,311.3945Zm3.2275,0a1.0759,1.0759,0,1,0-1.0761,1.0758A1.0758,1.0758,0,0,0,389.85289,311.3945Zm3.2273,0a1.0758,1.0758,0,1,0-1.0759,1.0758A1.07575,1.07575,0,0,0,393.08019,311.3945Zm-5.11,12.3716a1.0758,1.0758,0,1,0-1.0759,1.0758A1.076,1.076,0,0,0,387.97019,323.7661Zm3.2273,0a1.0758,1.0758,0,1,0-1.0759,1.0758A1.07588,1.07588,0,0,0,391.19749,323.7661Zm3.22751,0a1.07591,1.07591,0,1,0-1.07591,1.0758A1.076,1.076,0,0,0,394.425,323.7661Zm3.22729,0a1.0758,1.0758,0,1,0-1.0757,1.0758A1.0759,1.0759,0,0,0,397.65229,323.7661Zm3.2273,0a1.0758,1.0758,0,1,0-1.0757,1.0758A1.07578,1.07578,0,0,0,400.87959,323.7661Zm3.2275,0a1.0758,1.0758,0,1,0-1.0759,1.0758A1.07595,1.07595,0,0,0,404.10709,323.7661Zm-16.1369,8.8754a1.0758,1.0758,0,1,0-1.0759,1.0759A1.07586,1.07586,0,0,0,387.97019,332.6415Zm3.2273,0a1.0758,1.0758,0,1,0-1.0759,1.0759A1.07573,1.07573,0,0,0,391.19749,332.6415Zm3.22751,0a1.07591,1.07591,0,1,0-1.07591,1.0759A1.07581,1.07581,0,0,0,394.425,332.6415Zm3.22729,0a1.0758,1.0758,0,1,0-1.0757,1.0759A1.07575,1.07575,0,0,0,397.65229,332.6415Zm3.2273,0a1.0758,1.0758,0,1,0-1.0757,1.0759A1.07563,1.07563,0,0,0,400.87959,332.6415Zm3.2275,0a1.0758,1.0758,0,1,0-1.0759,1.0759A1.0758,1.0758,0,0,0,404.10709,332.6415Z" transform="translate(-27.8281 -16.0765)"/><path class="cls-1" d="M357.57849,338.9828h-3.7654a.9287.9287,0,0,1,0-1.8574h3.7654a.9287.9287,0,0,1,0,1.8574Zm.92851,3.3743a.92793.92793,0,0,0-.92851-.9285h-3.7654a.9286.9286,0,0,0,0,1.8572h3.7654A.928.928,0,0,0,358.507,342.3571Zm0,4.3032a.928.928,0,0,0-.92851-.9287h-3.7654a.9286.9286,0,0,0,0,1.8572h3.7654A.92786.92786,0,0,0,358.507,346.6603Zm0,4.3031a.928.928,0,0,0-.92851-.9287h-3.7654a.9286.9286,0,0,0,0,1.8572h3.7654A.92793.92793,0,0,0,358.507,350.9634Zm0,4.303a.9281.9281,0,0,0-.92851-.9287h-3.7654a.9287.9287,0,0,0,0,1.8574h3.7654A.928.928,0,0,0,358.507,355.2664Zm0,4.304a.928.928,0,0,0-.92851-.9287h-3.7654a.92865.92865,0,0,0,0,1.8573h3.7654A.928.928,0,0,0,358.507,359.5704Zm0,4.3031a.928.928,0,0,0-.92851-.9287h-3.7654a.9286.9286,0,0,0,0,1.8572h3.7654A.92793.92793,0,0,0,358.507,363.8735Zm0,4.303a.9281.9281,0,0,0-.92851-.9287h-3.7654a.9287.9287,0,0,0,0,1.8574h3.7654A.928.928,0,0,0,358.507,368.1765Zm14.08639-30.1224a.92815.92815,0,0,0-.9285-.9287h-9.8841a.9287.9287,0,0,0,0,1.8574h9.8841A.92821.92821,0,0,0,372.59339,338.0541Zm0,4.303a.928.928,0,0,0-.9285-.9285h-9.8841a.9286.9286,0,0,0,0,1.8572h9.8841A.92808.92808,0,0,0,372.59339,342.3571Zm0,4.3032a.92808.92808,0,0,0-.9285-.9287h-9.8841a.9286.9286,0,0,0,0,1.8572h9.8841A.928.928,0,0,0,372.59339,346.6603Zm0,4.3031a.92808.92808,0,0,0-.9285-.9287h-9.8841a.9286.9286,0,0,0,0,1.8572h9.8841A.928.928,0,0,0,372.59339,350.9634Zm0,4.303a.92821.92821,0,0,0-.9285-.9287h-9.8841a.9287.9287,0,0,0,0,1.8574h9.8841A.92815.92815,0,0,0,372.59339,355.2664Zm11.8338,4.304a.92807.92807,0,0,0-.9287-.9287h-9.8839a.92865.92865,0,1,0,0,1.8573h9.8839A.928.928,0,0,0,384.42719,359.5704Zm0,4.3031a.92813.92813,0,0,0-.9287-.9287h-9.8839a.9286.9286,0,1,0,0,1.8572h9.8839A.928.928,0,0,0,384.42719,363.8735Zm0,4.303a.9282.9282,0,0,0-.9287-.9287h-9.8839a.9287.9287,0,1,0,0,1.8574h9.8839A.92813.92813,0,0,0,384.42719,368.1765Zm-7.4841-30.1226a1.0758,1.0758,0,1,0-1.0757,1.0759A1.07575,1.07575,0,0,0,376.94309,338.0539Zm3.2273,0a1.0757,1.0757,0,1,0-1.0757,1.0759A1.07569,1.07569,0,0,0,380.17039,338.0539Zm3.2275,0a1.0757,1.0757,0,1,0-1.0757,1.0759A1.07569,1.07569,0,0,0,383.39789,338.0539Zm3.2275,0a1.0758,1.0758,0,1,0-1.0759,1.0759A1.07586,1.07586,0,0,0,386.62539,338.0539Zm3.2275,0a1.0759,1.0759,0,1,0-1.0761,1.0759A1.0759,1.0759,0,0,0,389.85289,338.0539Zm3.2273,0a1.0758,1.0758,0,1,0-1.0759,1.0759A1.07586,1.07586,0,0,0,393.08019,338.0539Zm-16.1371,8.6064a1.0758,1.0758,0,1,0-1.0757,1.0759A1.07575,1.07575,0,0,0,376.94309,346.6603Zm3.2273,0a1.0757,1.0757,0,1,0-1.0757,1.0759A1.07569,1.07569,0,0,0,380.17039,346.6603Zm3.2275,0a1.0757,1.0757,0,1,0-1.0757,1.0759A1.07569,1.07569,0,0,0,383.39789,346.6603Zm3.2275,0a1.0758,1.0758,0,1,0-1.0759,1.0759A1.07586,1.07586,0,0,0,386.62539,346.6603Zm3.2275,0a1.0759,1.0759,0,1,0-1.0761,1.0759A1.0759,1.0759,0,0,0,389.85289,346.6603Zm3.2273,0a1.0758,1.0758,0,1,0-1.0759,1.0759A1.07586,1.07586,0,0,0,393.08019,346.6603Zm-5.11,12.3717a1.0758,1.0758,0,1,0-1.0759,1.076A1.07593,1.07593,0,0,0,387.97019,359.032Zm3.2273,0a1.0758,1.0758,0,1,0-1.0759,1.076A1.0758,1.0758,0,0,0,391.19749,359.032Zm3.22751,0a1.07591,1.07591,0,1,0-1.07591,1.076A1.07587,1.07587,0,0,0,394.425,359.032Zm3.22729,0a1.0758,1.0758,0,1,0-1.0757,1.076A1.07582,1.07582,0,0,0,397.65229,359.032Zm3.2273,0a1.0758,1.0758,0,1,0-1.0757,1.076A1.07569,1.07569,0,0,0,400.87959,359.032Zm3.2275,0a1.0758,1.0758,0,1,0-1.0759,1.076A1.07586,1.07586,0,0,0,404.10709,359.032Zm-16.1369,8.8755a1.0758,1.0758,0,1,0-1.0759,1.0758A1.07588,1.07588,0,0,0,387.97019,367.9075Zm3.2273,0a1.0758,1.0758,0,1,0-1.0759,1.0758A1.07575,1.07575,0,0,0,391.19749,367.9075Zm3.22751,0a1.07591,1.07591,0,1,0-1.07591,1.0758A1.07583,1.07583,0,0,0,394.425,367.9075Zm3.22729,0a1.0758,1.0758,0,1,0-1.0757,1.0758A1.07578,1.07578,0,0,0,397.65229,367.9075Zm3.2273,0a1.0758,1.0758,0,1,0-1.0757,1.0758A1.07565,1.07565,0,0,0,400.87959,367.9075Zm3.2275,0a1.0758,1.0758,0,1,0-1.0759,1.0758A1.07582,1.07582,0,0,0,404.10709,367.9075Z" transform="translate(-27.8281 -16.0765)"/><path class="cls-1" d="M415.38729,269.2822H411.622a.92865.92865,0,0,1,0-1.8573h3.76529a.92865.92865,0,1,1,0,1.8573Zm.92871,3.3744a.92791.92791,0,0,0-.92871-.9285H411.622a.9286.9286,0,0,0,0,1.8572h3.76529A.92821.92821,0,0,0,416.316,272.6566Zm0,4.303a.928.928,0,0,0-.92871-.9285H411.622a.9286.9286,0,0,0,0,1.8572h3.76529A.92808.92808,0,0,0,416.316,276.9596Zm0,4.3032a.92816.92816,0,0,0-.92871-.9288H411.622a.9287.9287,0,0,0,0,1.8574h3.76529A.92806.92806,0,0,0,416.316,281.2628Zm0,4.3031a.92814.92814,0,0,0-.92871-.9287H411.622a.9286.9286,0,0,0,0,1.8572h3.76529A.928.928,0,0,0,416.316,285.5659Zm0,4.3038a.928.928,0,0,0-.92871-.9285H411.622a.9286.9286,0,0,0,0,1.8572h3.76529A.92808.92808,0,0,0,416.316,289.8697Zm0,4.3032a.928.928,0,0,0-.92871-.9286H411.622a.9286.9286,0,0,0,0,1.8572h3.76529A.92806.92806,0,0,0,416.316,294.1729Zm0,4.3031a.92814.92814,0,0,0-.92871-.9287H411.622a.9286.9286,0,0,0,0,1.8572h3.76529A.928.928,0,0,0,416.316,298.476Zm14.08639-30.1226a.92815.92815,0,0,0-.9287-.9285h-9.8839a.92865.92865,0,1,0,0,1.8573h9.8839A.92821.92821,0,0,0,430.40239,268.3534Zm0,4.3032a.928.928,0,0,0-.9287-.9285h-9.8839a.9286.9286,0,1,0,0,1.8572h9.8839A.92825.92825,0,0,0,430.40239,272.6566Zm0,4.303a.92808.92808,0,0,0-.9287-.9285h-9.8839a.9286.9286,0,1,0,0,1.8572h9.8839A.92813.92813,0,0,0,430.40239,276.9596Zm0,4.3032a.92821.92821,0,0,0-.9287-.9288h-9.8839a.9287.9287,0,1,0,0,1.8574h9.8839A.92811.92811,0,0,0,430.40239,281.2628Zm0,4.3031a.92819.92819,0,0,0-.9287-.9287h-9.8839a.9286.9286,0,1,0,0,1.8572h9.8839A.92808.92808,0,0,0,430.40239,285.5659Zm11.83361,4.3038a.928.928,0,0,0-.92861-.9285h-9.8839a.9286.9286,0,1,0,0,1.8572h9.8839A.92806.92806,0,0,0,442.236,289.8697Zm0,4.3032a.928.928,0,0,0-.92861-.9286h-9.8839a.9286.9286,0,1,0,0,1.8572h9.8839A.928.928,0,0,0,442.236,294.1729Zm0,4.3031a.92812.92812,0,0,0-.92861-.9287h-9.8839a.9286.9286,0,1,0,0,1.8572h9.8839A.928.928,0,0,0,442.236,298.476Zm-7.48391-30.1226a1.0758,1.0758,0,1,0-1.0758,1.0759A1.07578,1.07578,0,0,0,434.75209,268.3534Zm3.2273,0a1.0758,1.0758,0,1,0-1.0757,1.0759A1.07563,1.07563,0,0,0,437.97939,268.3534Zm3.2275,0a1.0758,1.0758,0,1,0-1.07589,1.0759A1.0758,1.0758,0,0,0,441.20689,268.3534Zm3.2273,0a1.0757,1.0757,0,1,0-1.0757,1.0759A1.07563,1.07563,0,0,0,444.43419,268.3534Zm3.2275,0a1.0758,1.0758,0,1,0-1.0759,1.0759A1.07567,1.07567,0,0,0,447.66169,268.3534Zm3.2275,0a1.0759,1.0759,0,1,0-1.0761,1.0759A1.07584,1.07584,0,0,0,450.88919,268.3534Zm-16.1371,8.6064a1.0758,1.0758,0,1,0-1.0758,1.0759A1.07578,1.07578,0,0,0,434.75209,276.9598Zm3.2273,0a1.0758,1.0758,0,1,0-1.0757,1.0759A1.07563,1.07563,0,0,0,437.97939,276.9598Zm3.2275,0a1.0758,1.0758,0,1,0-1.07589,1.0759A1.0758,1.0758,0,0,0,441.20689,276.9598Zm3.2273,0a1.0757,1.0757,0,1,0-1.0757,1.0759A1.07563,1.07563,0,0,0,444.43419,276.9598Zm3.2275,0a1.0758,1.0758,0,1,0-1.0759,1.0759A1.07567,1.07567,0,0,0,447.66169,276.9598Zm3.2275,0a1.0759,1.0759,0,1,0-1.0761,1.0759A1.07584,1.07584,0,0,0,450.88919,276.9598Zm-5.1101,12.3717a1.07585,1.07585,0,1,0-1.076,1.0759A1.076,1.076,0,0,0,445.77909,289.3315Zm3.2274,0a1.0758,1.0758,0,1,0-1.0759,1.0759A1.076,1.076,0,0,0,449.00649,289.3315Zm3.2273,0a1.0758,1.0758,0,1,0-1.0757,1.0759A1.07584,1.07584,0,0,0,452.23379,289.3315Zm3.2275,0a1.0759,1.0759,0,1,0-1.0759,1.0759A1.076,1.076,0,0,0,455.46129,289.3315Zm3.2273,0a1.0758,1.0758,0,1,0-1.0757,1.0759A1.0759,1.0759,0,0,0,458.68859,289.3315Zm3.2273,0a1.0757,1.0757,0,1,0-1.0757,1.0759A1.07584,1.07584,0,0,0,461.91589,289.3315Zm-16.1368,8.8754a1.07585,1.07585,0,1,0-1.076,1.0758A1.076,1.076,0,0,0,445.77909,298.2069Zm3.2274,0a1.0758,1.0758,0,1,0-1.0759,1.0758A1.076,1.076,0,0,0,449.00649,298.2069Zm3.2273,0a1.0758,1.0758,0,1,0-1.0757,1.0758A1.07586,1.07586,0,0,0,452.23379,298.2069Zm3.2275,0a1.0759,1.0759,0,1,0-1.0759,1.0758A1.076,1.076,0,0,0,455.46129,298.2069Zm3.2273,0a1.0758,1.0758,0,1,0-1.0757,1.0758A1.07593,1.07593,0,0,0,458.68859,298.2069Zm3.2273,0a1.0757,1.0757,0,1,0-1.0757,1.0758A1.07586,1.07586,0,0,0,461.91589,298.2069Z" transform="translate(-27.8281 -16.0765)"/><path class="cls-1" d="M415.38729,304.5482H411.622a.9287.9287,0,0,1,0-1.8574h3.76529a.9287.9287,0,1,1,0,1.8574Zm.92871,3.3743a.928.928,0,0,0-.92871-.9285H411.622a.9286.9286,0,0,0,0,1.8572h3.76529A.92808.92808,0,0,0,416.316,307.9225Zm0,4.3032a.92816.92816,0,0,0-.92871-.9288H411.622a.9287.9287,0,0,0,0,1.8574h3.76529A.92806.92806,0,0,0,416.316,312.2257Zm0,4.3031a.92808.92808,0,0,0-.92871-.9287H411.622a.9286.9286,0,0,0,0,1.8572h3.76529A.9281.9281,0,0,0,416.316,316.5288Zm0,4.3029a.92818.92818,0,0,0-.92871-.9286H411.622a.9287.9287,0,0,0,0,1.8574h3.76529A.92816.92816,0,0,0,416.316,320.8317Zm0,4.3041a.928.928,0,0,0-.92871-.9286H411.622a.9286.9286,0,0,0,0,1.8572h3.76529A.92806.92806,0,0,0,416.316,325.1358Zm0,4.3031a.92814.92814,0,0,0-.92871-.9287H411.622a.9286.9286,0,0,0,0,1.8572h3.76529A.928.928,0,0,0,416.316,329.4389Zm0,4.303a.92821.92821,0,0,0-.92871-.9287H411.622a.9287.9287,0,0,0,0,1.8574h3.76529A.92814.92814,0,0,0,416.316,333.7419Zm14.08639-30.1224a.92813.92813,0,0,0-.9287-.9287h-9.8839a.9287.9287,0,0,0,0,1.8574h9.8839A.92825.92825,0,0,0,430.40239,303.6195Zm0,4.303a.92808.92808,0,0,0-.9287-.9285h-9.8839a.9286.9286,0,1,0,0,1.8572h9.8839A.92813.92813,0,0,0,430.40239,307.9225Zm0,4.3032a.92821.92821,0,0,0-.9287-.9288h-9.8839a.9287.9287,0,1,0,0,1.8574h9.8839A.92811.92811,0,0,0,430.40239,312.2257Zm0,4.3031a.92813.92813,0,0,0-.9287-.9287h-9.8839a.9286.9286,0,1,0,0,1.8572h9.8839A.92815.92815,0,0,0,430.40239,316.5288Zm0,4.3029a.92823.92823,0,0,0-.9287-.9286h-9.8839a.9287.9287,0,1,0,0,1.8574h9.8839A.92821.92821,0,0,0,430.40239,320.8317Zm11.83361,4.3041a.928.928,0,0,0-.92861-.9286h-9.8839a.9286.9286,0,1,0,0,1.8572h9.8839A.928.928,0,0,0,442.236,325.1358Zm0,4.3031a.92812.92812,0,0,0-.92861-.9287h-9.8839a.9286.9286,0,1,0,0,1.8572h9.8839A.928.928,0,0,0,442.236,329.4389Zm0,4.303a.92818.92818,0,0,0-.92861-.9287h-9.8839a.9287.9287,0,0,0,0,1.8574h9.8839A.92812.92812,0,0,0,442.236,333.7419Zm-7.48391-30.1226a1.0758,1.0758,0,1,0-1.0758,1.0759A1.0759,1.0759,0,0,0,434.75209,303.6193Zm3.2273,0a1.0758,1.0758,0,1,0-1.0757,1.0759A1.07575,1.07575,0,0,0,437.97939,303.6193Zm3.2275,0a1.0758,1.0758,0,1,0-1.07589,1.0759A1.07592,1.07592,0,0,0,441.20689,303.6193Zm3.2273,0a1.0757,1.0757,0,1,0-1.0757,1.0759A1.07575,1.07575,0,0,0,444.43419,303.6193Zm3.2275,0a1.0758,1.0758,0,1,0-1.0759,1.0759A1.0758,1.0758,0,0,0,447.66169,303.6193Zm3.2275,0a1.0759,1.0759,0,1,0-1.0761,1.0759A1.076,1.076,0,0,0,450.88919,303.6193Zm-16.1371,8.6064a1.0758,1.0758,0,1,0-1.0758,1.0759A1.0759,1.0759,0,0,0,434.75209,312.2257Zm3.2273,0a1.0758,1.0758,0,1,0-1.0757,1.0759A1.07575,1.07575,0,0,0,437.97939,312.2257Zm3.2275,0a1.0758,1.0758,0,1,0-1.07589,1.0759A1.07592,1.07592,0,0,0,441.20689,312.2257Zm3.2273,0a1.0757,1.0757,0,1,0-1.0757,1.0759A1.07575,1.07575,0,0,0,444.43419,312.2257Zm3.2275,0a1.0758,1.0758,0,1,0-1.0759,1.0759A1.0758,1.0758,0,0,0,447.66169,312.2257Zm3.2275,0a1.0759,1.0759,0,1,0-1.0761,1.0759A1.076,1.076,0,0,0,450.88919,312.2257Zm-5.1101,12.3717a1.07585,1.07585,0,1,0-1.076,1.0759A1.07588,1.07588,0,0,0,445.77909,324.5974Zm3.2274,0a1.0758,1.0758,0,1,0-1.0759,1.0759A1.07593,1.07593,0,0,0,449.00649,324.5974Zm3.2273,0a1.0758,1.0758,0,1,0-1.0757,1.0759A1.07575,1.07575,0,0,0,452.23379,324.5974Zm3.2275,0a1.0759,1.0759,0,1,0-1.0759,1.0759A1.07593,1.07593,0,0,0,455.46129,324.5974Zm3.2273,0a1.0758,1.0758,0,1,0-1.0757,1.0759A1.07582,1.07582,0,0,0,458.68859,324.5974Zm3.2273,0a1.0757,1.0757,0,1,0-1.0757,1.0759A1.07575,1.07575,0,0,0,461.91589,324.5974Zm-16.1368,8.8755a1.07585,1.07585,0,1,0-1.076,1.0757A1.07575,1.07575,0,0,0,445.77909,333.4729Zm3.2274,0a1.0758,1.0758,0,1,0-1.0759,1.0757A1.0758,1.0758,0,0,0,449.00649,333.4729Zm3.2273,0a1.0758,1.0758,0,1,0-1.0757,1.0757A1.07563,1.07563,0,0,0,452.23379,333.4729Zm3.2275,0a1.0759,1.0759,0,1,0-1.0759,1.0757A1.0758,1.0758,0,0,0,455.46129,333.4729Zm3.2273,0a1.0758,1.0758,0,1,0-1.0757,1.0757A1.07569,1.07569,0,0,0,458.68859,333.4729Zm3.2273,0a1.0757,1.0757,0,1,0-1.0757,1.0757A1.07563,1.07563,0,0,0,461.91589,333.4729Z" transform="translate(-27.8281 -16.0765)"/><circle class="cls-2" cx="10.84358" cy="270.2085" r="7.86919"/><rect class="cls-3" x="0.375" y="285.2223" width="5.6071" height="28.6587"/><rect class="cls-4" x="0.375" y="297.1959" width="5.6071" height="16.6851"/><rect class="cls-3" x="8.6191" y="285.2223" width="5.6071" height="28.6587"/><rect class="cls-4" x="8.6191" y="290.7184" width="5.6071" height="23.1626"/><rect class="cls-3" x="16.8632" y="285.2223" width="5.6071" height="28.6587"/><rect class="cls-4" x="16.8632" y="307.0103" width="5.6071" height="6.8707"/><line class="cls-2" x1="32.6554" y1="313.0629" x2="46.1242" y2="313.0629"/><line class="cls-2" x1="32.6554" y1="318.1718" x2="46.1242" y2="318.1718"/><line class="cls-2" x1="32.6554" y1="323.2806" x2="46.1242" y2="323.2806"/><polyline class="cls-2" points="24.76 297.04 39.622 297.04 39.622 312.134"/><rect class="cls-4" x="427.80279" y="212.2514" width="5.56121" height="24.2306" transform="translate(833.33869 432.6569) rotate(180)"/><rect class="cls-3" x="420.25559" y="221.7848" width="5.5611" height="14.6972" transform="translate(818.24418 442.1903) rotate(180)"/><rect class="cls-4" x="412.70839" y="205.8958" width="5.5611" height="30.5862" transform="translate(803.14978 426.3013) rotate(180)"/><rect class="cls-3" x="405.16109" y="200.3347" width="5.5611" height="36.1473" transform="translate(788.05518 420.7402) rotate(180)"/><rect class="cls-4" x="397.61389" y="215.4292" width="5.56111" height="21.0528" transform="translate(772.96079 435.8347) rotate(180)"/><rect class="cls-3" x="390.06659" y="220.5931" width="5.5611" height="15.8889" transform="translate(757.86618 440.9986) rotate(180)"/><rect class="cls-4" x="382.51939" y="226.9487" width="5.561" height="9.5333" transform="translate(742.77168 447.3542) rotate(180)"/><rect class="cls-3" x="374.97209" y="212.2514" width="5.5611" height="24.2306" transform="translate(727.67718 432.6569) rotate(180)"/><rect class="cls-4" x="367.42479" y="219.4014" width="5.5611" height="17.0806" transform="translate(712.58258 439.8069) rotate(180)"/><rect class="cls-3" x="359.87759" y="212.2514" width="5.5611" height="24.2306" transform="translate(697.48818 432.6569) rotate(180)"/><rect class="cls-4" x="352.33029" y="227.3459" width="5.5611" height="9.1361" transform="translate(682.39358 447.7514) rotate(180)"/><rect class="cls-3" x="344.78309" y="212.2514" width="5.5611" height="24.2306" transform="translate(667.29918 432.6569) rotate(180)"/><line class="cls-5" x1="415.46299" y1="220.4055" x2="296.77819" y2="220.4055"/><line class="cls-5" x1="328.11139" y1="226.3961" x2="305.30979" y2="226.3961"/><line class="cls-5" x1="328.11139" y1="230.108" x2="305.30979" y2="230.108"/><line class="cls-5" x1="328.11139" y1="233.8198" x2="305.30979" y2="233.8198"/><line class="cls-5" x1="328.11139" y1="237.5317" x2="305.30979" y2="237.5317"/><ellipse class="cls-1" cx="106.9983" cy="454.41178" rx="46.4388" ry="11.44612"/><path class="cls-4" d="M114.5353,349.2879l3.0237,60.9171s-2.9338,8.9849-1.1002,16.3195c1.8337,7.3346,3.3006,29.155,3.3006,29.155s-3.1172,4.2174-5.6843,8.2515c-2.5671,4.034-4.4008,6.6011.5501,6.7845,4.9508.1834,10.2684-6.7845,11.3686-8.6182,1.1002-1.8336,1.2836-2.7505,1.4669-6.9679.1834-4.2174,5.8677-53.9093,6.0511-55.3762.1833-1.467,2.3837-21.4538,2.5671-22.0039s7.7013,81.0475,8.2514,82.5144,10.0851,7.5179,11.7354,8.2514,5.3176.9168,4.7675-1.8336c-.5501-2.7505-5.501-7.3347-6.9679-9.3517a27.61706,27.61706,0,0,1-2.2004-3.4839s2.3838-20.7203,2.9339-28.2382c.5501-7.518,1.1002-18.1532,1.1002-21.4538,0-3.3005-.4174-56.9609-.4174-56.9609l-40.8398-.6157Z" transform="translate(-27.8281 -16.0765)"/><path class="cls-3" d="M120.6106,290.9443s-16.2357,7.437-16.4451,8.275c-.2095.8379-5.1326,23.3584-5.1326,23.3584l-13.4075-14.874-5.7611,5.4468s10.6841,19.9018,15.1882,23.5679,6.1801,5.3421,6.9133,5.1326,9.7414-17.2832,9.7414-17.2832l2.4091,13.8265s-.4189,10.3699.419,10.8936a5.2974,5.2974,0,0,0,2.3044.5238h36.766s1.2569.5237,1.6759-2.6187-.6285-13.3027-.6285-13.3027l.838-9.3225s10.2651,6.9133,11.2078,6.5991c.9428-.3143,3.0377-2.9329,3.3519-3.8757.3143-.9427,1.4665-11.2078,1.8855-17.7021a119.74363,119.74363,0,0,0-.419-15.3977l-5.8658-.5237-4.2946,14.7692s-7.5417-16.0262-7.9607-16.1309-13.4075-3.8756-13.4075-3.8756Z" transform="translate(-27.8281 -16.0765)"/><line class="cls-6" x1="127.663" y1="308.4913" x2="129.7929" y2="289.8265"/><line class="cls-6" x1="133.5288" y1="292.3604" x2="130.4951" y2="301.9046"/><line class="cls-6" x1="71.2048" y1="306.5012" x2="77.4077" y2="310.1907"/><line class="cls-6" x1="83.8791" y1="308.4913" x2="79.093" y2="292.7758"/><line class="cls-6" x1="59.8524" y1="294.4611" x2="54.0942" y2="300.0788"/><line class="cls-6" x1="136.5342" y1="282.6639" x2="143.5563" y2="283.7875"/><polygon class="cls-4" points="102 283.667 107.342 288.275 106.923 327.241 112.37 334.049 115.303 325.67 109.332 287.647 112.056 281.362 105.98 277.172 102 283.667"/><path class="cls-7" d="M115.7937,271.3834a27.4887,27.4887,0,0,1-4.4576-10.0825c-1.3797-6.1556,5.4127-9.4456,8.7028-10.507,3.2901-1.0613,8.8089-2.6532,11.3561-1.8042,2.5471.8491,3.29,2.3349,3.1839,3.6085a6.89457,6.89457,0,0,1-1.3797,2.8655s0,.9552-2.3349,1.1675c-2.3349.2122-7.9598.3184-8.915,1.8042s.9552,1.6981.849,4.1391c-.1061,2.441-2.9716,4.8821-2.7594,5.7311.2123.8491,1.3797,3.1839.4245,3.8207C119.5083,272.7631,116.7488,272.5509,115.7937,271.3834Z" transform="translate(-27.8281 -16.0765)"/><path class="cls-8" d="M132.5359,254.9604s4.1369,5.7591,5.5158,10.3826c1.379,4.6236,3.4879,12.4917,3.4068,13.2217s-4.4613,1.9467-4.4613,1.9467l1.6223,9.3282s-2.3523,4.948-2.3523,5.2724v2.9201l-2.839.1623-1.1356-2.0279-9.896-9.4904-1.46-7.3814s-4.3802-2.4334-5.7591-5.1913c-1.379-2.7579.6489-4.1368,1.2167-4.0557a23.74883,23.74883,0,0,1,3.0823,1.3789s-.73-3.2446-.3244-4.1368c.4055-.8923,2.0278-3.8935,1.3789-5.2724-.6489-1.379-2.1901-.5678-.5678-3.0824,1.6223-2.5145,3.2446-4.8669,7.2192-3.8124S132.5359,254.9604,132.5359,254.9604Z" transform="translate(-27.8281 -16.0765)"/><path class="cls-8" d="M138.6195,257.3127a20.13961,20.13961,0,0,0-10.4637.8923c-5.7592,2.0278-9.5715,4.7046-9.7338,5.8402-.1622,1.1356,3.8935,4.5424,4.7858,4.7047.8922.1622,6.7325-2.0279,7.3814-2.9202.6489-.8922.9734-3.8123,1.4601-3.9746.4866-.1622,6.7324,1.6223,6.7324,1.6223S140.3229,258.7728,138.6195,257.3127Z" transform="translate(-27.8281 -16.0765)"/><polyline class="cls-8" points="105.053 246.18 111.845 248.408 108.13 251.911"/><path class="cls-6" d="M128.7417,269.8976a6.77678,6.77678,0,0,0,6.474,2.0165" transform="translate(-27.8281 -16.0765)"/><polygon class="cls-9" points="109.169 264.435 103.567 264.965 110.041 269.847 109.169 264.435"/><path class="cls-10" d="M128.0336,263.3836c.2984.6044.2633,1.2311-.0784,1.3998-.3416.1686-.8604-.1847-1.1588-.7892-.2983-.6044-.2632-1.2311.0785-1.3998C127.2165,262.4258,127.7353,262.7791,128.0336,263.3836Z" transform="translate(-27.8281 -16.0765)"/><path class="cls-10" d="M134.773,260.6772c.2983.6045.2632,1.2312-.0784,1.3998-.3417.1686-.8605-.1847-1.1588-.7891-.2984-.6045-.2633-1.2312.0784-1.3998C133.9558,259.7195,134.4746,260.0728,134.773,260.6772Z" transform="translate(-27.8281 -16.0765)"/><path class="cls-6" d="M124.2842,261.0887a4.76437,4.76437,0,0,1,3.1839-1.4859" transform="translate(-27.8281 -16.0765)"/><path class="cls-6" d="M132.1379,258.5415a4.49878,4.49878,0,0,1,2.441-.2122" transform="translate(-27.8281 -16.0765)"/><polygon class="cls-9" points="93.108 263.218 95.395 262.312 93.59 264.965 93.108 263.218"/><polygon class="cls-3" points="104.464 280.09 101.581 287.123 91.63 275.915 93.935 270.364 104.464 280.09"/><polygon class="cls-3" points="108.439 279.035 115.198 284.086 113.627 272.563 110.041 269.847 110.791 273.763 108.439 279.035"/><path class="cls-8" d="M85.6254,307.7037l-1.528-3.0144s2.2456-6.5639,1.9001-7.8595c-.3455-1.2955-.95-1.6409-.95-4.3183s.4318-4.3184-.691-3.8002c-1.1227.5182-2.3319,1.1228-2.2455,2.591a27.62069,27.62069,0,0,0,.4318,3.1956,42.2269,42.2269,0,0,1-2.8501-3.9729c-.5182-1.0364-2.9365-4.8365-4.1456-5.0093-1.2092-.1727-3.7138.5182-3.6275,2.0728.0864,1.5547.8637,1.4683,2.332,1.2092,1.4682-.2591,2.2455,2.591,2.4182,3.8001.1728,1.2092-.4318,1.4683-1.2955,2.0729-.8636.6045-5.7002,7.6003-5.6138,8.8094a7.68737,7.68737,0,0,0,1.6409,3.9729c.8637.9501,1.8137.1728,1.641-.8636a4.94537,4.94537,0,0,1-.1727-1.7274c.0863-.2591,2.591,1.1228,3.1956,1.3819l.6045.2591,3.1945,6.6475Z" transform="translate(-27.8281 -16.0765)"/><path class="cls-6" d="M82.5428,294.4979l-.3454,1.641s-3.1093,2.8501-2.9365,4.7502a4.63664,4.63664,0,0,0,1.0364,2.7638" transform="translate(-27.8281 -16.0765)"/><path class="cls-8" d="M75.3743,294.6707s2.8502,6.6502,2.6774,7.1684c-.1727.5183-1.3819,1.4683-1.9001,1.3819-.5182-.0863-3.9729-4.7502-4.0592-5.9593C72.006,296.0525,74.4243,294.6707,75.3743,294.6707Z" transform="translate(-27.8281 -16.0765)"/><path class="cls-8" d="M72.2651,297.9526s-3.0228,2.2456-2.4183,3.4547c.6046,1.2092,4.4911,3.8865,5.1821,3.7138.6909-.1727,1.1227-1.9001,1.1227-1.9001Z" transform="translate(-27.8281 -16.0765)"/><path class="cls-8" d="M165.6515,293.6677l-.609-2.198-4.1742-9.03,3.9186-5.6224s0-3.9187.3408-4.6002c.3407-.6815,3.2371-3.5779,3.6631-3.5779.4259,0,.9371.3407.6815,1.1926a38.06982,38.06982,0,0,1-2.0445,3.9187l1.1074,4.2594,1.6186-2.3853a34.4773,34.4773,0,0,1,1.7889-4.4298c.3408-.2555,4.1743-1.4482,4.7706-1.1074a1.29629,1.29629,0,0,1,.4259,1.5334,32.83865,32.83865,0,0,1-3.3223,1.7889l-1.1926,3.0668.2555,2.2149s2.7261-3.0668,3.152-3.6631,2.3853-1.1074,3.4075-1.1074c1.0223,0,1.363.5963.8519,1.2778a10.72218,10.72218,0,0,1-2.5556,1.7038L175.691,280.31a17.03705,17.03705,0,0,0,1.9594-.5111c.3407-.1704,2.726-.2556,3.2371.2555.5112.5112.5964,1.2779.0852,1.6186-.5111.3408-2.0445.2556-2.4704.4259-.426.1704-3.8335,2.2149-3.8335,2.2149a14.74949,14.74949,0,0,1-.6815,3.4076,16.69221,16.69221,0,0,1-2.3001,3.3223l-.1699,3.1477Z" transform="translate(-27.8281 -16.0765)"/><path class="cls-6" d="M164.7869,276.8173a1.67124,1.67124,0,0,1,1.4482,1.5334c.0852,1.363-2.726,5.7076-2.726,5.7076" transform="translate(-27.8281 -16.0765)"/><path class="cls-6" d="M165.1277,281.5026s3.2371,2.9816,3.5779,4.6002a3.60772,3.60772,0,0,1-.2556,2.5557" transform="translate(-27.8281 -16.0765)"/><polygon class="cls-8" points="90.594 247.969 88.566 253.971 90.04 254.298 95.38 252.673 90.594 247.969"/><circle class="cls-2" cx="39.179" cy="270.2085" r="12.5883"/><circle class="cls-2" cx="39.17898" cy="270.2085" r="7.86919"/><circle class="cls-2" cx="172.87982" cy="278.69142" r="15.95224" transform="translate(-174.25737 187.79482) rotate(-45)"/><path class="cls-2" d="M153.077,278.8243l-3.9164.0262a23.67934,23.67934,0,0,0,9.3342,18.701l2.384-3.1257A19.75409,19.75409,0,0,1,153.077,278.8243Z" transform="translate(-27.8281 -16.0765)"/><path class="cls-2" d="M172.8798,258.8819a19.78839,19.78839,0,0,1,17.6028,28.8694l3.4888,1.7957a23.71992,23.71992,0,0,0-21.0916-34.5789Z" transform="translate(-27.8281 -16.0765)"/><path class="cls-2" d="M186.3977,293.1438a19.74448,19.74448,0,0,1-8.3893,4.6625l1.0193,3.7992a23.67485,23.67485,0,0,0,10.0536-5.5926Z" transform="translate(-27.8281 -16.0765)"/><rect class="cls-3" x="51.6339" y="212.722" width="5.6071" height="52.4687" transform="translate(265.5657 168.4424) rotate(90)"/><rect class="cls-4" x="40.6732" y="223.6827" width="5.6071" height="30.5473" transform="translate(254.605 179.4031) rotate(90)"/><rect class="cls-3" x="51.6339" y="220.9661" width="5.6071" height="52.4687" transform="translate(273.8098 176.6865) rotate(90)"/><rect class="cls-4" x="46.60275" y="225.99725" width="5.6071" height="42.4064" transform="translate(268.77865 181.71765) rotate(90)"/><rect class="cls-3" x="51.6339" y="229.2102" width="5.6071" height="52.4687" transform="translate(282.0539 184.9306) rotate(90)"/><rect class="cls-4" x="31.68905" y="249.15505" width="5.6071" height="12.579" transform="translate(262.10905 204.87545) rotate(90)"/><line class="cls-2" x1="60.3922" y1="221.2923" x2="68.5148" y2="221.2923"/><line class="cls-2" x1="60.3922" y1="226.7074" x2="68.5148" y2="226.7074"/><line class="cls-2" x1="60.3922" y1="232.1225" x2="68.5148" y2="232.1225"/><line class="cls-2" x1="60.3922" y1="237.5376" x2="68.5148" y2="237.5376"/><path class="cls-1" d="M469.07549,461.0719c0,3.6631-12.0476,6.6326-26.9091,6.6326-14.8616,0-26.9092-2.9695-26.9092-6.6326,0-3.663,12.0476-6.6325,26.9092-6.6325C457.02789,454.4394,469.07549,457.4089,469.07549,461.0719Z" transform="translate(-27.8281 -16.0765)"/><path class="cls-4" d="M420.086,378.6062s-1.583,4.3531-4.94671,4.9468c-3.3638.5936-9.2999-5.9361-5.5404-9.2999S418.503,376.2318,420.086,378.6062Z" transform="translate(-27.8281 -16.0765)"/><path class="cls-4" d="M425.23059,357.2363s-4.9467,12.07-2.968,18.0061,14.2466,10.2893,17.8082,2.5723c3.5617-7.7169-4.3531-18.5997-7.3211-20.9741C429.78159,354.4661,426.22,355.2576,425.23059,357.2363Z" transform="translate(-27.8281 -16.0765)"/><path class="cls-4" d="M454.11959,362.381s-8.5084,7.7168-9.4978,15.4337c-.9893,7.717,4.7489,10.4871,10.685,9.4978,5.9361-.9894,8.9041-16.0274,7.1233-22.9528C460.64929,357.4342,454.11959,362.381,454.11959,362.381Z" transform="translate(-27.8281 -16.0765)"/><path class="cls-4" d="M455.70249,405.1208s-9.4977.3957-9.89349,4.9466c-.39571,4.5511,4.15529,5.5404,8.70629,1.583C459.06629,407.6931,459.65989,405.3186,455.70249,405.1208Z" transform="translate(-27.8281 -16.0765)"/><path class="cls-4" d="M432.156,414.6185s-.98931,4.7488-4.55091,6.5296c-3.5617,1.7809-9.8935-1.9786-6.5297-7.7169C424.43909,407.6931,430.37519,412.244,432.156,414.6185Z" transform="translate(-27.8281 -16.0765)"/><path class="cls-4" d="M423.84549,399.7783s-1.7808-3.9574-8.7062-1.3851c-6.9255,2.5723-9.6956,6.5296-5.3425,7.9147C414.14989,407.6931,423.84549,399.7783,423.84549,399.7783Z" transform="translate(-27.8281 -16.0765)"/><path class="cls-4" d="M443.63249,352.2896s1.1872,2.7702,3.5616,2.1765c2.3744-.5935,2.9681-4.1552,6.7276-3.1658,3.7595.9893,6.9254,5.3424,6.9254,3.3637s-4.7488-7.1233-10.0913-7.1233S443.83029,349.7173,443.63249,352.2896Z" transform="translate(-27.8281 -16.0765)"/><path class="cls-2" d="M433.844,382.1767s4.13929,12.1223,5.02629,22.4706,0,26.9057,0,26.9057" transform="translate(-27.8281 -16.0765)"/><path class="cls-2" d="M448.33169,386.316s-4.7308,13.8963-5.9134,22.7663c-1.1827,8.87-1.47829,22.4707-1.47829,22.4707" transform="translate(-27.8281 -16.0765)"/><path class="cls-2" d="M445.96629,411.152s-2.0697.5913-3.25229,20.6966" transform="translate(-27.8281 -16.0765)"/><path class="cls-2" d="M432.156,414.6185s1.98359-1.6925,3.16629,2.1512c1.18271,3.8436.5913,14.4876.5913,14.4876" transform="translate(-27.8281 -16.0765)"/><path class="cls-2" d="M437.272,412.7136a65.38642,65.38642,0,0,1,.11989,18.248" transform="translate(-27.8281 -16.0765)"/><path class="cls-2" d="M423.84549,399.7783s8.5202-1.6356,12.0681,7.8257a26.31523,26.31523,0,0,1,.88941,2.8956" transform="translate(-27.8281 -16.0765)"/><path class="cls-4" d="M459.40379,390.6126s1.7808-3.9574,8.7063-1.3851c6.9254,2.5723,9.6956,6.5297,5.3424,7.9148C469.09939,398.5274,459.40379,390.6126,459.40379,390.6126Z" transform="translate(-27.8281 -16.0765)"/><path class="cls-2" d="M451.82959,392.3455a12.34154,12.34154,0,0,0-4.494,6.0928c-3.5479,9.4613-3.1433,32.819-3.1433,32.819" transform="translate(-27.8281 -16.0765)"/><path class="cls-2" d="M459.40379,390.6126a10.972,10.972,0,0,0-5.898.8035" transform="translate(-27.8281 -16.0765)"/><path class="cls-2" d="M429.41719,384.6424a27.96594,27.96594,0,0,1,5.0181,9.0653c4.73071,13.6006,6.50471,31.0449,5.61771,37.5496" transform="translate(-27.8281 -16.0765)"/><path class="cls-2" d="M420.086,378.6062a16.45967,16.45967,0,0,1,8.30139,4.9081" transform="translate(-27.8281 -16.0765)"/><path class="cls-2" d="M441.43169,397.3704c-.2879,17.165-.49169,34.1826-.49169,34.1826" transform="translate(-27.8281 -16.0765)"/><path class="cls-2" d="M443.63249,352.2896s-.91849-.8622-1.5098,14.5124c-.2299,5.9743-.4596,17.0825-.65469,28.4327" transform="translate(-27.8281 -16.0765)"/><path class="cls-3" d="M449.46129,461.7109h-17.3384a3.60913,3.60913,0,0,1-3.5923-3.2603l-2.66959-27.489h29.86229l-2.6696,27.489A3.60922,3.60922,0,0,1,449.46129,461.7109Z" transform="translate(-27.8281 -16.0765)"/><polygon class="cls-11" points="398.923 424.051 399.239 427.303 426.689 427.303 427.005 424.051 398.923 424.051"/><polygon class="cls-11" points="426 434.399 426.172 432.625 399.756 432.625 399.928 434.399 426 434.399"/><circle class="cls-11" cx="423.75589" cy="420.2071" r="2.3653"/><path class="cls-11" d="M430.296,438.6489a2.3653,2.3653,0,1,0-2.36541-2.3653A2.36526,2.36526,0,0,0,430.296,438.6489Z" transform="translate(-27.8281 -16.0765)"/><path class="cls-11" d="M435.02659,436.2836a2.36535,2.36535,0,1,0,2.3653-2.3653A2.36539,2.36539,0,0,0,435.02659,436.2836Z" transform="translate(-27.8281 -16.0765)"/><path class="cls-11" d="M442.12269,436.2836a2.36525,2.36525,0,1,0,2.3652-2.3653A2.36524,2.36524,0,0,0,442.12269,436.2836Z" transform="translate(-27.8281 -16.0765)"/><path class="cls-3" d="M51.9875,361.9435a22.97,22.97,0,1,0,0,45.94v-14.08a8.89,8.89,0,1,1,5.73-15.7l10.74-9.19A22.857,22.857,0,0,0,51.9875,361.9435Z" transform="translate(-27.8281 -16.0765)"/><path class="cls-4" d="M74.9675,384.9135a22.97339,22.97339,0,0,1-22.98,22.97v-14.08a8.89313,8.89313,0,0,0,5.73-15.7l10.74-9.19A22.7819,22.7819,0,0,1,74.9675,384.9135Z" transform="translate(-27.8281 -16.0765)"/><path class="cls-12" d="M60.8875,384.9135a8.88146,8.88146,0,1,1-3.17-6.81A8.8919,8.8919,0,0,1,60.8875,384.9135Z" transform="translate(-27.8281 -16.0765)"/><path class="cls-13" d="M60.8875,384.9135a8.88146,8.88146,0,1,1-3.17-6.81A8.8919,8.8919,0,0,1,60.8875,384.9135Z" transform="translate(-27.8281 -16.0765)"/><line class="cls-5" x1="29.8894" y1="362.027" x2="29.7894" y2="362.117"/><path class="cls-4" d="M271.43229,346.152h-34.2418a11.82819,11.82819,0,0,1-10.5416-6.4634l-7.1562-14.0614h69.6375l-7.1563,14.0614A11.82819,11.82819,0,0,1,271.43229,346.152Z" transform="translate(-27.8281 -16.0765)"/><path class="cls-14" d="M183.96779,265.3021h84.0584a0,0,0,0,1,0,0V314.135a5.7776,5.7776,0,0,1-5.7776,5.7776h-72.5032a5.7776,5.7776,0,0,1-5.7776-5.7776V265.3021A0,0,0,0,1,183.96779,265.3021Z"/><polygon class="cls-3" points="240.364 265.302 183.968 279.154 183.968 294.628 268.026 273.982 268.026 265.302 240.364 265.302"/><path class="cls-3" d="M295.85429,301.3397l-84.0584,20.6467v8.2251a5.77757,5.77757,0,0,0,5.7776,5.7776h.2113l78.0695-19.1757Z" transform="translate(-27.8281 -16.0765)"/><path class="cls-4" d="M345.41029,134.6413a90.81949,90.81949,0,0,0-92.1057-90.8104c-50.0238.6923-90.37019,42.3636-89.51949,92.3849a90.41038,90.41038,0,0,0,20.139,55.4682,117.34408,117.34408,0,0,1,9.1124,12.7915l.828,1.363a107.49605,107.49605,0,0,1,15.62159,55.8075v17.4473a6.10084,6.10084,0,0,0,6.1008,6.1008h78.0082a6.10077,6.10077,0,0,0,6.1008-6.1008V261.6979a107.49589,107.49589,0,0,1,15.6717-55.8898l.9745-1.6009a109.648,109.648,0,0,1,8.6865-12.2415A90.42911,90.42911,0,0,0,345.41029,134.6413Z" transform="translate(-27.8281 -16.0765)"/><path class="cls-15" d="M202.11639,72.5705c1.7113,4.2276,8.9533,5.2849,16.1755,2.3614s11.6896-8.7206,9.9783-12.9483c-1.7113-4.2276-8.9533-5.2848-16.1755-2.3613S200.40509,68.3429,202.11639,72.5705Z" transform="translate(-27.8281 -16.0765)"/><path class="cls-16" d="M241.61749,271.122s-17.5699-141.687-24.1561-145.6469c-5.0665-3.0462-12.3218,5.7777-8.059,18.5662,4.2629,12.7885,73.9794,9.5828,81.79461,5.32s-.25571-30.6666-6.65-24.2724c-6.39421,6.3943-18.77351,146.0331-18.77351,146.0331" transform="translate(-27.8281 -16.0765)"/><line class="cls-2" x1="108.2137" y1="117.81" x2="120.6611" y2="117.81"/><line class="cls-2" x1="81.2974" y1="117.81" x2="104.2884" y2="117.81"/><line class="cls-2" x1="142.1475" y1="49.2337" x2="150.1839" y2="55.4842"/><line class="cls-2" x1="120.6611" y1="32.522" x2="138.6526" y2="46.5155"/><line class="cls-2" x1="366.17619" y1="117.81" x2="334.50529" y2="117.81"/><line class="cls-2" x1="373.86899" y1="117.81" x2="370.28959" y2="117.81"/><line class="cls-2" x1="334.50529" y1="32.522" x2="304.98249" y2="55.4842"/><line class="cls-2" x1="226.76299" y1="0.375" x2="226.76299" y2="18.0887"/><ellipse class="cls-1" cx="349.87249" cy="454.41178" rx="46.4388" ry="11.44612"/><polygon class="cls-17" points="333.943 287.081 330.802 317.868 309.098 324.113 311.964 326.672 333.361 324.83 338.378 316.435 333.943 287.081"/><path class="cls-17" d="M361.269,395.8909l4.30419,19.803,5.64,46.0103a11.87219,11.87219,0,0,1-2.6716,4.7494c-1.9294,1.9295-5.4915,5.1947-5.4915,5.64s3.5621,1.9295,6.0852,1.3358c2.5232-.5937,7.1242-4.601,7.8663-5.3431s2.96841-1.6327,2.6715-3.5621c-.2968-1.9295-1.781-2.0779-1.781-5.9368,0-3.859,1.4842-25.9736,1.4842-35.1756,0-9.2021-.1484-24.5525-.1484-24.5525Z" transform="translate(-27.8281 -16.0765)"/><path class="cls-11" d="M379.67309,464.5242a4.50933,4.50933,0,0,0-.7146-1.7439c-2.2308,2.0567-5.4952,5.864-8.0422,6.7901a4.90978,4.90978,0,0,1-4.8305-.7271,19.27956,19.27956,0,0,0-3.0357,3.2503c0,.4453,3.562,1.9294,6.0852,1.3358,2.5231-.5937,7.1242-4.601,7.8663-5.3431C377.74369,467.3441,379.97,466.4536,379.67309,464.5242Z" transform="translate(-27.8281 -16.0765)"/><path class="cls-17" d="M375.369,398.8593s6.82729,59.5796,7.12409,61.8059c.29691,2.2263-.8905,5.9369-.8905,5.9369s-4.7494,6.2336-4.45259,7.5694,1.03889,2.2263,5.04629.4452a10.90069,10.90069,0,0,0,6.5305-9.0536c.1484-3.4137-.2969-5.9368-.2969-7.7178,0-1.7811,2.82-21.9662,2.6716-29.0904a96.38485,96.38485,0,0,0-1.1874-13.061l1.6327-16.983Z" transform="translate(-27.8281 -16.0765)"/><path class="cls-11" d="M388.72679,465.5631c.0486-1.1186.0306-2.1323-.0117-3.0648-.8494,2.0963-2.2909,5.2377-3.9957,6.0332a4.53024,4.53024,0,0,1-4.0073,0l-.4086-.1518c-1.3827,1.9495-3.3479,4.9171-3.15349,5.7917.29689,1.3359,1.03889,2.2264,5.04629.4453A10.9005,10.9005,0,0,0,388.72679,465.5631Z" transform="translate(-27.8281 -16.0765)"/><path class="cls-4" d="M353.55119,361.9027s-.2968,7.8662.8905,13.3578c1.1874,5.4915,4.3042,23.8956,4.3042,23.8956s16.3262,6.0852,34.1366,2.3747c0,0,7.2726-29.9808,8.0147-33.6913a18.78606,18.78606,0,0,0,.1484-6.6789S379.52469,369.1753,353.55119,361.9027Z" transform="translate(-27.8281 -16.0765)"/><path class="cls-3" d="M370.97519,298.202s-8.5284,3.7973-9.20419,4.9558-1.64121,15.3223-.96541,17.7358,3.3789,11.4882,3.3789,11.4882l-12.7432,30.9891s7.5606,4.6761,23.7792,5.0623a83.94759,83.94759,0,0,0,28.6416-4.29l-11.7778-30.6995s10.909-27.031,9.5574-28.3826c-1.3515-1.3515-14.6346-7.778-14.6346-7.778Z" transform="translate(-27.8281 -16.0765)"/><path class="cls-17" d="M380.19469,264.9238s-4.2035,2.3529-4.8056,4.098c-.602,1.7452-1.7932,4.0066-2.6295,4.6432-.8363.6365-4.4534-.2002-4.5011,1.4279-.0478,1.628,1.9,3.4306,1.9,3.4306s-3.1241,7.8643-2.9216,9.0648c.2026,1.2004,5.6916,2.2717,5.6916,2.2717l.7673,6.2044-2.7206,2.1376-2.8177,13.7528,15.5461.7773,3.3035-15.449-.8356-7.377s4.7326-2.9926,5.5532-5.0735,1.8755-3.0532-1.8202-8.131C386.20879,271.6237,380.19469,264.9238,380.19469,264.9238Z" transform="translate(-27.8281 -16.0765)"/><path class="cls-11" d="M388.11389,259.8443s-7.728-4.4133-9.3913-1.0813c-1.6633,3.3319,2.2727,11.8845,5.3415,15.2043l2.2991,3.4655s-1.5238,1.7355-.7637,2.5117c.7601.7761,3.1422-.7661,3.8357.5009a3.72191,3.72191,0,0,1-1.0047,4.9981,7.62655,7.62655,0,0,1-4.3174,1.4913s.8042,2.4358,2.0584,2.9713c1.2543.5355,10.9628-2.2823,13.6618-4.743,2.699-2.4608,7.1924-17.8697-2.2078-23.9904C388.22539,255.052,388.11389,259.8443,388.11389,259.8443Z" transform="translate(-27.8281 -16.0765)"/><path class="cls-11" d="M401.18849,264.2519a5.0462,5.0462,0,0,1,1.9549-4.7731c2.54061-2.0015,7.6112.8784,7.6112.8784l-4.9539.655s8.2032,3.0354,9.21,6.6718c1.0068,3.6363.1858,8.6978-3.3335,10.2589-3.51919,1.561-8.6596-.5206-8.6596-.5206S404.13379,267.6319,401.18849,264.2519Z" transform="translate(-27.8281 -16.0765)"/><polygon class="cls-9" points="345.1 273.784 348.845 274.574 345.868 278.737 345.1 273.784"/><path class="cls-6" d="M372.69319,280.9537s2.4145.722,3.7896-.6903" transform="translate(-27.8281 -16.0765)"/><path class="cls-8" d="M375.05829,267.3419s-4.4708,5.5606-4.382,6.59c.08871,1.0295,3.4881,2.7571,5.47171,3.4414s9.41859,3.5821,9.41859,3.5821l1.6692-.9779S377.56509,268.7616,375.05829,267.3419Z" transform="translate(-27.8281 -16.0765)"/><line class="cls-6" x1="353.53609" y1="257.4361" x2="350.66949" y2="261.8854"/><line class="cls-6" x1="355.0749" y1="259.4098" x2="353.24809" y2="262.7749"/><path class="cls-10" d="M377.08409,274.7471c-.3742.6537-.9426,1.0319-1.2695.8448-.3268-.1872-.2884-.8688.0859-1.5225s.9426-1.0319,1.26951-.8448C377.49679,273.4117,377.45839,274.0934,377.08409,274.7471Z" transform="translate(-27.8281 -16.0765)"/><path class="cls-6" d="M377.08259,270.4818a2.5637,2.5637,0,0,1,2.3015,2.0148" transform="translate(-27.8281 -16.0765)"/><polygon class="cls-4" points="323.227 329.917 342.824 324.415 312.221 318.719 295.037 323.546 323.227 329.917"/><path class="cls-3" d="M390.53969,309.0192l-2.51,21.3352s-26.0656-3.0892-26.6449-2.6065c-.5792.4827-8.3989,6.3716-8.7851,7.337-.3861.9654-3.5719,6.275-3.5719,7.0473s1.6411-.0965,1.6411-.0965a.93291.93291,0,0,0,1.062.2896,37.087,37.087,0,0,0,3.0892-2.51s-1.7377,1.7377-.4827,1.8342c1.2551.0966,3.1858-2.8961,3.3789-3.2823s2.79971-1.3516,3.2824-2.4135a37.84975,37.84975,0,0,1,3.28231-4.3443s21.52829,7.9163,24.13479,8.6886c2.6066.7723,6.7578,1.4481,7.337.1931.5793-1.255,8.399-33.0165,8.3024-34.175-.0965-1.1585-7.8197-3.4754-7.8197-3.4754" transform="translate(-27.8281 -16.0765)"/><path class="cls-17" d="M384.18049,329.9061c-7.2713-.8374-22.35649-2.5243-22.7957-2.1583-.5792.4828-8.3989,6.3717-8.7851,7.337-.3861.9655-3.5719,6.2751-3.5719,7.0474s1.6411-.0966,1.6411-.0966a.93289.93289,0,0,0,1.062.2897,37.10733,37.10733,0,0,0,3.0892-2.51s-1.7377,1.7377-.4827,1.8342c1.2551.0966,3.1859-2.8962,3.3789-3.2823.1931-.3862,2.79971-1.3516,3.2824-2.4135a37.8407,37.8407,0,0,1,3.28231-4.3443s11.65009,4.2839,18.84709,6.8561Z" transform="translate(-27.8281 -16.0765)"/><line class="cls-17" x1="326.99199" y1="323.7388" x2="329.21239" y2="319.7807"/><path class="cls-17" d="M350.66889,342.0356a29.95245,29.95245,0,0,0,3.572-6.6611" transform="translate(-27.8281 -16.0765)"/><path class="cls-17" d="M352.59969,335.0848a33.75217,33.75217,0,0,0-3.6685,4.0547c-.4827.9654-1.3515,2.51-.9654,2.7031.38621.1931,1.4481-.9654,1.4481-.9654Z" transform="translate(-27.8281 -16.0765)"/><polygon class="cls-4" points="292.334 299.604 295.037 323.546 323.227 329.917 321.682 303.079 292.334 299.604"/><path class="cls-17" d="M331.07149,337.2087s-.8689,6.082-.4827,6.3716c.3861.2896,1.6411.8689,1.7377,0,.09651-.8688.4827-4.7304.09651-5.7923C332.03679,336.726,331.74719,336.3399,331.07149,337.2087Z" transform="translate(-27.8281 -16.0765)"/><path class="cls-17" d="M333.67629,337.3493s-1.2457,5.8887-1.01929,6.1152a1.88761,1.88761,0,0,0,1.39669.2642c.41531-.1132.453-1.2834.453-1.5476a25.19465,25.19465,0,0,0,.0755-4.2279C334.35569,337.1983,334.016,336.934,333.67629,337.3493Z" transform="translate(-27.8281 -16.0765)"/><path class="cls-17" d="M334.771,343.1625s1.73639.6795,1.88739.2265.1887-5.5867-.3398-5.549C335.79019,337.8778,334.88419,340.7089,334.771,343.1625Z" transform="translate(-27.8281 -16.0765)"/><path class="cls-17" d="M336.92259,343.5778s1.0947.4152,1.2457.2642.8682-4.0013.33971-3.7371C337.97959,340.3691,337.03589,343.1248,336.92259,343.5778Z" transform="translate(-27.8281 -16.0765)"/><path class="cls-2" d="M254.545,345.8755V462.1403a8.67416,8.67416,0,0,0,8.67419,8.6742h42.6299a8.67409,8.67409,0,0,0,8.6741-8.6742v-121.16a4.9106,4.9106,0,0,1,4.9106-4.9106h3.261" transform="translate(-27.8281 -16.0765)"/></g></svg>