<svg id="Layer_1" data-name="Layer 1" xmlns="http://www.w3.org/2000/svg" viewBox="0 0 422.25269 382.75838"><defs><style>.cls-1{fill:#d0ebe3;}.cls-2{fill:#173e26;}.cls-2,.cls-3,.cls-4,.cls-5,.cls-6,.cls-7,.cls-8{stroke:#2e353a;}.cls-11,.cls-13,.cls-2,.cls-3,.cls-4,.cls-5,.cls-6,.cls-7,.cls-8,.cls-9{stroke-linecap:round;stroke-linejoin:round;}.cls-2,.cls-4,.cls-5{stroke-width:2px;}.cls-11,.cls-3,.cls-4,.cls-7{fill:none;}.cls-3{stroke-width:3px;}.cls-5,.cls-9{fill:#fff;}.cls-6{fill:#2e353a;}.cls-8{fill:#007f33;}.cls-11,.cls-13,.cls-9{stroke:#263238;}.cls-10,.cls-13{fill:#263238;}.cls-12{fill:#92e3a9;}</style></defs><rect class="cls-1" x="1.0073" y="73.5706" width="32.617" height="12.4917"/><rect class="cls-1" x="56.5256" y="73.5706" width="32.6171" height="12.4917"/><rect class="cls-1" x="112.044" y="73.5706" width="32.617" height="12.4917"/><rect class="cls-1" x="167.5623" y="73.5706" width="32.617" height="12.4917"/><rect class="cls-1" x="223.08069" y="73.5706" width="32.617" height="12.4917"/><rect class="cls-1" x="278.59899" y="73.5706" width="32.617" height="12.4917"/><rect class="cls-1" x="334.1173" y="73.5706" width="32.61709" height="12.4917"/><rect class="cls-1" x="389.63569" y="73.5706" width="32.617" height="12.4917"/><rect class="cls-1" x="1.0073" y="97.8599" width="32.617" height="12.4916"/><rect class="cls-1" x="56.5256" y="97.8599" width="32.6171" height="12.4916"/><rect class="cls-1" x="112.044" y="97.8599" width="32.617" height="12.4916"/><rect class="cls-1" x="167.5623" y="97.8599" width="32.617" height="12.4916"/><rect class="cls-1" x="223.08069" y="97.8599" width="32.617" height="12.4916"/><rect class="cls-1" x="278.59899" y="97.8599" width="32.617" height="12.4916"/><rect class="cls-1" x="334.1173" y="97.8599" width="32.61709" height="12.4916"/><rect class="cls-1" x="389.63569" y="97.8599" width="32.617" height="12.4916"/><rect class="cls-1" x="1.0073" y="122.1492" width="32.617" height="12.4916"/><rect class="cls-1" x="56.5256" y="122.1492" width="32.6171" height="12.4916"/><rect class="cls-1" x="112.044" y="122.1492" width="32.617" height="12.4916"/><rect class="cls-1" x="167.5623" y="122.1492" width="32.617" height="12.4916"/><rect class="cls-1" x="223.08069" y="122.1492" width="32.617" height="12.4916"/><rect class="cls-1" x="278.59899" y="122.1492" width="32.617" height="12.4916"/><rect class="cls-1" x="334.1173" y="122.1492" width="32.61709" height="12.4916"/><rect class="cls-1" x="389.63569" y="122.1492" width="32.617" height="12.4916"/><rect class="cls-1" x="1.0073" y="146.4385" width="32.617" height="12.4916"/><rect class="cls-1" x="56.5256" y="146.4385" width="32.6171" height="12.4916"/><rect class="cls-1" x="112.044" y="146.4385" width="32.617" height="12.4916"/><rect class="cls-1" x="167.5623" y="146.4385" width="32.617" height="12.4916"/><rect class="cls-1" x="223.08069" y="146.4385" width="32.617" height="12.4916"/><rect class="cls-1" x="278.59899" y="146.4385" width="32.617" height="12.4916"/><rect class="cls-1" x="334.1173" y="146.4385" width="32.61709" height="12.4916"/><rect class="cls-1" x="389.63569" y="146.4385" width="32.617" height="12.4916"/><rect class="cls-1" x="1.0073" y="170.7277" width="32.617" height="12.4917"/><rect class="cls-1" x="56.5256" y="170.7277" width="32.6171" height="12.4917"/><rect class="cls-1" x="112.044" y="170.7277" width="32.617" height="12.4917"/><rect class="cls-1" x="167.5623" y="170.7277" width="32.617" height="12.4917"/><rect class="cls-1" x="223.08069" y="170.7277" width="32.617" height="12.4917"/><rect class="cls-1" x="278.59899" y="170.7277" width="32.617" height="12.4917"/><rect class="cls-1" x="334.1173" y="170.7277" width="32.61709" height="12.4917"/><rect class="cls-1" x="389.63569" y="170.7277" width="32.617" height="12.4917"/><rect class="cls-1" x="1.0073" y="195.017" width="32.617" height="12.4916"/><rect class="cls-1" x="56.5256" y="195.017" width="32.6171" height="12.4916"/><rect class="cls-1" x="112.044" y="195.017" width="32.617" height="12.4916"/><rect class="cls-1" x="167.5623" y="195.017" width="32.617" height="12.4916"/><rect class="cls-1" x="223.08069" y="195.017" width="32.617" height="12.4916"/><rect class="cls-1" x="278.59899" y="195.017" width="32.617" height="12.4916"/><rect class="cls-1" x="334.1173" y="195.017" width="32.61709" height="12.4916"/><rect class="cls-1" x="389.63569" y="195.017" width="32.617" height="12.4916"/><g id="freepik--Bulb--inject-148"><path class="cls-2" d="M215.41,419.9c-9.11-13.87-48-72.19-59.38-73.75-11.09-1.52-50.5,57.45-61.16,73.75Z" transform="translate(-39.74 -52.94)"/><line class="cls-3" x1="225.54" y1="26.19" x2="225.54" y2="160.68"/><line class="cls-3" x1="241.52001" y1="29.8" x2="241.52001" y2="160.68"/><line class="cls-3" x1="259.04" y1="101.42" x2="259.04" y2="228.19001"/><line class="cls-3" x1="277.58998" y1="29.8" x2="277.58998" y2="228.19001"/><line class="cls-3" x1="296.14" y1="29.8" x2="296.14" y2="164.29"/><line class="cls-3" x1="211.62999" y1="44.22001" x2="296.65999" y2="44.22001"/><line class="cls-3" x1="211.62999" y1="74.11" x2="303.83998" y2="74.11"/><line class="cls-3" x1="210.09" y1="101.42" x2="312.62999" y2="101.42"/><line class="cls-3" x1="208.54" y1="131.83001" x2="312.62999" y2="131.83001"/><line class="cls-3" x1="228.11998" y1="164.80001" x2="306.96001" y2="164.80001"/><line class="cls-3" x1="248.73" y1="196.75" x2="300.26" y2="196.75"/><line class="cls-4" x1="113.07" y1="38.96" x2="131.26" y2="53.2"/><line class="cls-4" x1="149.45" y1="23.94" x2="155.78" y2="33.43"/><line class="cls-4" x1="181.87999" y1="1" x2="187.42" y2="18.4"/><path class="cls-2" d="M325.4,277.54h-30V206.21H254.7V79.88a100,100,0,0,0-87.42,146.73c3.26,7.59,10.92,26.18,18.59,50.22,7.09,22.19,10.79,44.5,10.79,47.87v1a7.48,7.48,0,0,0,7.21548,7.73548q.12722.00444.25452.00451H307.38a7.49,7.49,0,0,0,7.47416-7.5058q-.00024-.11713-.00415-.23419v-1C314.83,321.37,318.46,299.49,325.4,277.54Z" transform="translate(-39.74 -52.94)"/><path class="cls-4" d="M220.81,96a80.30963,80.30963,0,0,1,8.89-3.39" transform="translate(-39.74 -52.94)"/><path class="cls-4" d="M187.51,121.34s8.15-13,26.06-21.75" transform="translate(-39.74 -52.94)"/><path class="cls-4" d="M189.65,265.26c3.71,12.12,8.62,28.91,10.32,38.29,2.88,15.82,1,24,7.2,25.41" transform="translate(-39.74 -52.94)"/><path class="cls-4" d="M185.11,250.8s1,3.25,2.61,8.23" transform="translate(-39.74 -52.94)"/><path class="cls-4" d="M249.42,332.47v-95.6s4-25-9-25-12,13,3,27,38,1,41-10-5-16-10-7,0,111,0,111" transform="translate(-39.74 -52.94)"/><rect class="cls-5" x="162.34" y="279.91999" width="107.90999" height="25.04001"/><rect class="cls-5" x="162.34" y="310.91999" width="107.90999" height="25.04001"/><rect class="cls-6" x="162.34" y="304.96" width="107.90999" height="5.95999"/><rect class="cls-5" x="162.34" y="341.91999" width="107.90999" height="25.04001"/><line class="cls-7" x1="258.96001" y1="301.60999" x2="266.98" y2="301.60999"/><line class="cls-7" x1="166.58001" y1="301.60999" x2="255.09999" y2="301.60999"/><line class="cls-7" x1="238.15999" y1="333.10001" x2="264.01" y2="333.10001"/><line class="cls-7" x1="182.59999" y1="333.10001" x2="235.18999" y2="333.10001"/><line class="cls-7" x1="173.98999" y1="333.10001" x2="178.43999" y2="333.10001"/><rect class="cls-6" x="162.34" y="335.96" width="107.90999" height="5.95999"/><rect class="cls-8" x="176.39" y="347.41001" width="36.94" height="19.23001"/><rect class="cls-8" x="224.46001" y="347.41001" width="36.94" height="19.23001"/></g><g id="freepik--Ground--inject-148"><path class="cls-2" d="M334.37,419.9c-7.08-6.21-37.31-32.32-46.11-33-8.62-.69-39.22,25.72-47.5,33Z" transform="translate(-39.74 -52.94)"/><line class="cls-7" x1="411.33998" y1="366.96" x2="420.02001" y2="366.96"/><line class="cls-7" x1="14" y1="366.96" x2="402.65999" y2="366.96"/><line class="cls-7" x1="0.5" y1="366.96" x2="7.25" y2="366.96"/></g><g id="freepik--character-1--inject-117"><polygon class="cls-9" points="346.532 216.037 350.372 219.767 349.922 226.997 343.472 218.977 346.532 216.037"/><path class="cls-9" d="M393.55247,210.32729s-2.77,5.41-2.24,8.18.53,5.28-.4,6.73-2.77,2.24-1.84,3.3a11.09006,11.09006,0,0,0,2.77,2s.79,3.56,1.45,5.8.53,2.64,2.9,2.9a19.51933,19.51933,0,0,0,3.7.14,146.49,146.49,0,0,0,1.84-15.44C402.52247,213.76729,393.55247,210.32729,393.55247,210.32729Z" transform="translate(-39.74 -52.94)"/><path class="cls-10" d="M392.54246,222.98729c0,.9.24,1.62.53,1.62s.52-.72.52-1.62-.24-1.62-.52-1.62S392.54246,222.09729,392.54246,222.98729Z" transform="translate(-39.74 -52.94)"/><path class="cls-11" d="M394.74247,220.09729s-2-3.18-3.43-1.59" transform="translate(-39.74 -52.94)"/><path class="cls-11" d="M392.54246,233.05729a3.41,3.41,0,0,0,2.32-1.16" transform="translate(-39.74 -52.94)"/><path class="cls-9" d="M370.48247,253.76729l-17.31,7.16a1.32,1.32,0,0,0-.56,2l22,29.78a1.33,1.33,0,0,0,1.77.33l14.88-9.45a1.23,1.23,0,0,0,.378-1.69792l-.028-.04209-19.57-27.63A1.33,1.33,0,0,0,370.48247,253.76729Z" transform="translate(-39.74 -52.94)"/><polygon class="cls-9" points="331.362 202.587 314.402 209.597 335.452 238.117 349.992 228.887 331.362 202.587"/><path class="cls-9" d="M386.72246,269.98729s-2.6-3.28-3.28-3.84-4.41-2.26-5.09-3.17-.9,1.59.34,2.38a28.74388,28.74388,0,0,1,2.6,1.92,6.53,6.53,0,0,0,1.92,3.05,4.76986,4.76986,0,0,0,2.61,1" transform="translate(-39.74 -52.94)"/><rect class="cls-12" x="361.68649" y="262.03266" width="8.55" height="1.02" transform="translate(-115.69435 122.61499) rotate(-24.52)"/><polygon class="cls-12" points="328.152 212.137 332.422 218.067 326.942 221.137 322.322 215.067 328.152 212.137"/><polygon class="cls-12" points="334.082 208.847 343.112 221.687 340.902 222.927 331.782 210.087 334.082 208.847"/><path class="cls-2" d="M417.30247,293.8373s6.2,13.46,5.94,22.43-4.75,19-5.41,20.71-3.7,17.28-3,23.88,5.28,9,7.79,16,5.93,28.23,6.33,33.38,2.11,19,2.37,20.71.27,3.56-.92,3.56h-20s-1.32-.13-1.06-.92,3-2,5.54-4.35,7-5.28,7.26-7.26-1.72-10.55-3.83-15.44a51.00032,51.00032,0,0,0-5.47-9.27s-9.76-17.28-12.13-31.93-7.13-38.78-7.13-38.78v-30.87Z" transform="translate(-39.74 -52.94)"/><path class="cls-9" d="M414.79246,429.19728c2.51-2.38,7-5.28,7.26-7.26.17-1.3-.62-5.44-1.79-9.51l8.73-1.21c.52,5.75,2,18.08,2.29,19.69s.27,3.56-.92,3.56h-20s-1.32-.13-1.06-.92S412.29246,431.56728,414.79246,429.19728Z" transform="translate(-39.74 -52.94)"/><path class="cls-9" d="M414.79246,429.19728c1.64-1.55,4.1-3.32,5.7-4.92l.93,2.59s6.36-.45,9.26-.64c.29,2.35.52,4.13.6,4.68.27,1.72.27,3.56-.92,3.56h-20s-1.32-.13-1.06-.92S412.29246,431.56728,414.79246,429.19728Z" transform="translate(-39.74 -52.94)"/><path class="cls-2" d="M417.17247,324.9773l-3.43,4.22s-2.64,14-3.56,23.74-.27,9.77,1.32,17.68,3.69,12.14,2.5,18.73-3.16,39.05-3.43,40.51.38,4.09-1.07,4.61-23.33,0-23.33,0-1.59-1.71-.66-2.5,8.33-3.2,11.63-5.81,4.71-3.53,5-5.12-1-24.56-3.41-34.06-5.15-26.12-7-34.56-3.7-18.74-2.38-38c.35-5.06,1.45-7.25,1.45-8.18s.27-9.89.13-10.42,22.81-1.85,22.81-1.85" transform="translate(-39.74 -52.94)"/><path class="cls-8" d="M402.00247,248.32729s-12.8,19.26-12.8,24.54-1.45,22.42.4,23.21,13.58,1.32,18.07.8,9.23-1.46,10.42-2.91,1.77-1.89,2.3-7.44,3.24-18.66,3.37-26-10.42-15.85-14.11-15.06A34.83973,34.83973,0,0,0,402.00247,248.32729Z" transform="translate(-39.74 -52.94)"/><path class="cls-9" d="M381.24246,274.24729a16.05934,16.05934,0,0,0-2.26-3.73c-.93-.8-5.33-4-5.87-2.8s0,1.33.8,1.73a25.86978,25.86978,0,0,1,3.34,3.34,14.36933,14.36933,0,0,0-2.8,1.19,2.88,2.88,0,0,0-.94,2.4c.27.94.54,2.67,1.2,2.94s1.07-.94,1.07-.94a46.50984,46.50984,0,0,0,3.6,3.47,4.66031,4.66031,0,0,0,1.46.53s23.76,14.55,25.49,15.48,4,1.6,4.93.66,8.76-33.84,9.43-37-.13-10-5.73-9.86-7.6,5-8.53,8.79c-.6,2.44-3,25.41-3,25.41l-19.67-6.87Z" transform="translate(-39.74 -52.94)"/><path class="cls-13" d="M392.05247,209.90729s-.53.91,2.84,6.49,3.85,8.12,2.46,11.57a10.87,10.87,0,0,0,1.23,10.34c2.16,3.24,3.26,1.9,2.64,7s4.34,6.72,7.14,6.45,6-5.61,8.59-4-.48,6.57,2.25,8,10.32-1.36,11.6-4.68-1.4-5.65.76-8.81,5.27-4.07,3-9.39-8.49-5.09-8.7-8.64-.66-14.57-4.42-19.13-11.86-4.4-16.54-3.21S391.84247,207.82729,392.05247,209.90729Z" transform="translate(-39.74 -52.94)"/><path class="cls-9" d="M397.14247,426.15731c3.3-2.64,4.71-3.53,5-5.12a81.13033,81.13033,0,0,0-.3-8.27h10c-.64,8.62-1.15,16.35-1.28,17-.26,1.45.38,4.09-1.07,4.61s-23.33,0-23.33,0-1.59-1.71-.66-2.5S393.84247,428.76729,397.14247,426.15731Z" transform="translate(-39.74 -52.94)"/><path class="cls-9" d="M386.17247,434.4673s-1.59-1.71-.66-2.5,8.33-3.2,11.63-5.81c1.27-1,2.26-1.77,3-2.41.08.2.17.42.26.7.57,1.71,1,3.27,1,3.27l9.42-.67c-.12,1.56-.21,2.58-.25,2.81-.26,1.45.38,4.09-1.07,4.61S386.17247,434.4673,386.17247,434.4673Z" transform="translate(-39.74 -52.94)"/></g></svg>